<?xml version="1.0" standalone="no"?>
<!DOCTYPE svg PUBLIC "-//W3C//DTD SVG 1.1//EN" "http://www.w3.org/Graphics/SVG/1.1/DTD/svg11.dtd">
<svg xmlns="http://www.w3.org/2000/svg">
<metadata>Copyright (C) 2024 by original authors @ fontello.com</metadata>
<defs>
<font id="ecut-ico" horiz-adv-x="1000" >
<font-face font-family="ecut-ico" font-weight="400" font-stretch="normal" units-per-em="1000" ascent="850" descent="-150" />
<missing-glyph horiz-adv-x="1000" />
<glyph glyph-name="arrow-left" unicode="&#xe800;" d="M451-37c8-9 12-21 12-34a52 52 0 0 0-12-34 40 40 0 0 0-30-14 40 40 0 0 0-30 14l-379 432a49 49 0 0 0-9 16 54 54 0 0 0 0 37 49 49 0 0 0 9 15l379 433a40 40 0 0 0 30 14c11 0 22-5 30-14 8-9 12-21 12-34a52 52 0 0 0-12-34l-349-399 349-398z" horiz-adv-x="474" />

<glyph glyph-name="arrow-right" unicode="&#xe801;" d="M12 760a52 52 0 0 0-12 34c0 12 4 25 12 34a40 40 0 0 0 30 14c11 0 22-5 30-14l379-433a49 49 0 0 0 9-15 54 54 0 0 0 0-37 49 49 0 0 0-9-16l-379-432a40 40 0 0 0-30-14 40 40 0 0 0-30 14 52 52 0 0 0-12 34c0 13 4 25 12 34l350 398-350 399z" horiz-adv-x="474" />

<glyph glyph-name="arrow-right-long" unicode="&#xe802;" d="M1534 839a88 88 0 0 1-43-42 117 117 0 0 1 0-65 1818 1818 0 0 1 151-157l148-139h-1734l-15-9a122 122 0 0 1-27-26 59 59 0 0 1-12-53 58 58 0 0 1 10-43 104 104 0 0 1 27-25l15-11h1735l-147-145a2134 2134 0 0 1-151-159 117 117 0 0 1 0-65 81 81 0 0 1 105-42c18 8 446 431 461 452a88 88 0 0 1 0 88c-16 26-440 441-459 451a75 75 0 0 1-64-10z" horiz-adv-x="2069" />

<glyph glyph-name="arrow-up" unicode="&#xe803;" d="M171-109a107 107 0 0 0-71-26c-26 0-52 10-71 26a83 83 0 0 0-29 63c0 23 11 45 29 62l900 793c10 8 21 14 33 19a112 112 0 0 0 76 0c13-5 24-11 33-19l900-793c19-17 29-39 29-62a83 83 0 0 0-29-63 107 107 0 0 0-71-26c-27 0-52 10-71 26l-829 731-829-731z" horiz-adv-x="2000" />

<glyph glyph-name="arrow-up-long" unicode="&#xe804;" d="M845 488l-386 351a46 46 0 0 1-13 8 49 49 0 0 1-32 0 46 46 0 0 1-14-8l-387-351a36 36 0 0 1 0-55 45 45 0 0 1 30-12 44 44 0 0 1 30 12l322 291v-838a36 36 0 0 1 71 0v838l322-291a44 44 0 0 1 30-12 45 45 0 0 1 30 12 36 36 0 0 1 0 55z" horiz-adv-x="857" />

<glyph glyph-name="category" unicode="&#xe805;" d="M232 386a232 232 0 1 0 232 232 233 233 0 0 0-232-232z m0 393a161 161 0 1 1 161-161 161 161 0 0 1-161 161z m536-393a232 232 0 1 0 232 232 233 233 0 0 0-232-232z m0 393a161 161 0 1 1 161-161 161 161 0 0 1-161 161z m-536-929a232 232 0 1 0 232 232 233 233 0 0 0-232-232z m0 393a161 161 0 1 1 161-161 161 161 0 0 1-161 161z m536-393a232 232 0 1 0 232 232 233 233 0 0 0-232-232z m0 393a161 161 0 1 1 161-161 161 161 0 0 1-161 161z" horiz-adv-x="1000" />

<glyph glyph-name="compare" unicode="&#xe806;" d="M1273 132a28 28 0 0 1-4 10l-198 436h65a46 46 0 1 1 0 90h-454v136a46 46 0 1 1-91 0v-136h-455a46 46 0 0 1 0-90h66l-198-435a62 62 0 0 1-3-11 35 35 0 0 1 0-10 273 273 0 0 1 466-192 270 270 0 0 1 80 192 65 65 0 0 1 0 10 63 63 0 0 1-4 11l-200 435h587l-198-436a45 45 0 0 1-4-10 65 65 0 0 1 0-10 274 274 0 0 1 273-272 275 275 0 0 1 193 80 270 270 0 0 1 79 192 35 35 0 0 1 0 10z m-872-138a187 187 0 0 0-257 0 181 181 0 0 0-47 84h352a180 180 0 0 0-48-84z m-285 174l157 345 159-345z m884 345l156-345h-313z m128-519a188 188 0 0 0-257 0 180 180 0 0 0-47 84h352a181 181 0 0 0-48-84z" horiz-adv-x="1273" />

<glyph glyph-name="email" unicode="&#xe807;" d="M0 714a129 129 0 0 0 129 129h942a129 129 0 0 0 129-129v-29l-567-378c-10-6-21-9-33-9a62 62 0 0 0-33 9l-567 378v29z m0-158v-570a129 129 0 0 1 129-129h942a129 129 0 0 1 129 129v570l-508-338 0-1a169 169 0 0 0-92-26c-32 0-64 9-91 26l-1 1-508 338z" horiz-adv-x="1200" />

<glyph glyph-name="favorite" unicode="&#xe808;" d="M589-150a193 193 0 0 0-136 58l-355 353a334 334 0 0 0-98 259 375 375 0 0 0 107 242c103 103 282 144 482-36 147 131 270 135 349 115a333 333 0 0 0 227-246 344 344 0 0 0-82-335l-358-352a192 192 0 0 0-136-58z m-276 915a205 205 0 0 1-147-63c-92-92-120-272-11-381l358-354a107 107 0 0 1 153 0l358 354a258 258 0 0 1 60 253 252 252 0 0 1-167 184c-92 25-197-17-298-120a42 42 0 0 0-59 0 382 382 0 0 1-232 127z" horiz-adv-x="1178" />

<glyph glyph-name="favorite-fill" unicode="&#xe809;" d="M590-1a127 127 0 0 0-180 0l-303 301c-203 203 62 651 393 320 331 331 596-118 394-320l-303-301z" horiz-adv-x="1000" />

<glyph glyph-name="find" unicode="&#xe80a;" d="M423 850c-221 0-402-181-402-402 0-222 181-403 402-403 96 0 185 34 254 90l272-272a42 42 0 1 1 59 59l-272 272a401 401 0 0 1 90 254c0 221-181 402-403 402z m0-83a319 319 0 0 0 320-319 318 318 0 0 0-89-222 42 42 0 0 1-9-9 318 318 0 0 0-222-89 319 319 0 0 0-319 320 319 319 0 0 0 319 319z m0 83c-221 0-402-181-402-402 0-222 181-403 402-403 96 0 185 34 254 90l272-272a42 42 0 1 1 59 59l-272 272a401 401 0 0 1 90 254c0 221-181 402-403 402z m0-83a319 319 0 0 0 320-319 318 318 0 0 0-89-222 42 42 0 0 1-9-9 318 318 0 0 0-222-89 319 319 0 0 0-319 320 319 319 0 0 0 319 319z" horiz-adv-x="1042" />

<glyph glyph-name="headphone" unicode="&#xe80b;" d="M499 743a227 227 0 0 1-231-224v-312a71 71 0 0 0-72-71h-89a107 107 0 0 0-107 107v143a107 107 0 0 0 107 107h54v28a334 334 0 0 0 339 329 334 334 0 0 0 339-329v-28h54a107 107 0 0 0 107-107v-143a107 107 0 0 0-107-107h-54v-36a196 196 0 0 0-174-195 107 107 0 0 0-94-55h-107a107 107 0 1 0 0 214h107a107 107 0 0 0 92-51 89 89 0 0 1 69 87v420a227 227 0 0 1-233 223z" horiz-adv-x="1000" />

<glyph glyph-name="home" unicode="&#xe80c;" d="M991 397a102 102 0 0 1-26 36l-441 407a36 36 0 0 1-48 0l-441-407a103 103 0 0 1-26-36 107 107 0 0 1-9-42v-397a109 109 0 0 1 32-76 107 107 0 0 1 75-32h786a106 106 0 0 1 75 31 108 108 0 0 1 32 76v397a107 107 0 0 1-9 43z m-62-42v-397a35 35 0 0 0-36-36h-786a37 37 0 0 0-25 11 36 36 0 0 0-11 26v396a39 39 0 0 0 3 14 33 33 0 0 0 9 12l417 386 417-385a33 33 0 0 0 8-12 33 33 0 0 0 3-15z" horiz-adv-x="1000" />

<glyph glyph-name="insta-outline" unicode="&#xe80d;" d="M500 760c134 0 149-1 202-3 48-3 75-11 93-18 23-8 40-20 57-37 18-18 29-34 37-57 7-18 15-45 18-93 2-53 3-69 3-202s-1-149-3-202c-3-49-11-75-18-93-8-23-20-40-37-58-17-17-34-28-57-37-18-6-45-15-93-17-53-2-69-3-202-3-133 0-149 0-202 3-49 2-75 10-93 17-23 9-40 20-58 37-17 18-28 35-37 58-6 18-15 44-17 93-2 53-3 69-3 202s0 149 3 202c2 48 10 75 17 93 9 23 20 40 37 57 18 18 35 29 58 37 18 7 44 15 93 18 53 2 69 3 202 3z m0 90c-136 0-153 0-206-3-54-2-90-11-122-23-33-13-60-30-88-58-28-28-45-56-58-89-12-31-21-68-23-121-3-53-3-70-3-206 0-136 0-153 3-206 2-54 11-90 23-122 13-33 30-61 58-88 28-28 55-45 88-58 32-12 68-21 122-23 53-3 70-4 206-4s153 1 206 4c53 2 90 11 121 23 33 13 61 30 89 58 28 27 45 55 58 88 12 32 20 68 23 122 2 53 3 70 3 206s-1 153-3 206c-3 53-12 90-23 121-13 33-30 61-58 89-28 28-56 45-89 57-31 13-68 21-121 24-53 2-70 3-206 3m0-243c-142 0-257-115-257-257 0-141 115-256 257-256 141 0 257 115 257 256 0 142-116 257-257 257z m0-423a167 167 0 0 0-167 166c0 92 75 167 167 167 91 0 166-75 166-167 0-91-75-166-166-166z m327 433a60 60 0 0 0-60-60 60 60 0 0 0-60 60 60 60 0 0 0 60 60 60 60 0 0 0 60-60z" horiz-adv-x="1000" />

<glyph glyph-name="insta-solid" unicode="&#xe80e;" d="M500 520a172 172 0 1 1 172-171 172 172 0 0 1-172 171z m453 202a284 284 0 0 1-81 81c-72 47-171 47-372 47s-299 0-371-47a284 284 0 0 1-81-81c-48-72-48-172-48-372s0-299 48-371a284 284 0 0 1 81-81c72-48 171-48 371-48s300 0 372 48a284 284 0 0 1 81 81c47 72 47 171 47 371s0 300-47 372z m-453-631a259 259 0 1 0 259 259 259 259 0 0 0-259-259z m269 470a61 61 0 1 0 64 61 61 61 0 0 0-64-61z" horiz-adv-x="1000" />

<glyph glyph-name="linkedin" unicode="&#xe80f;" d="M6 730c0 34 12 61 35 83 24 22 54 33 92 33 37 0 67-11 89-32 24-23 36-51 36-87 0-32-12-59-35-80-23-22-54-33-92-33h-1c-37 0-67 11-90 33-23 22-34 50-34 83z m13-878v671h224v-671h-224z m347 0h224v374c0 24 3 42 8 55 9 22 24 42 43 57 19 16 43 24 72 24 75 0 113-51 113-152v-358h223v384c0 99-23 175-70 226-47 51-109 77-187 77-86 0-154-38-202-112v-2h-1l1 2v96h-224c2-22 2-88 2-200 0-112 0-269-2-471z" horiz-adv-x="1087" />

<glyph glyph-name="location" unicode="&#xe810;" d="M499 850a346 346 0 0 1-343-343 374 374 0 0 1 51-175 823 823 0 0 1 107-150 1125 1125 0 0 1 108-107c13-11 26-21 39-31 5-3 9-6 14-10l7-3a39 39 0 0 1 28-2 86 86 0 0 1 13 5c4 4 9 7 13 10 14 10 27 20 39 31a1123 1123 0 0 1 109 106 793 793 0 0 1 107 150 376 376 0 0 1 51 176 346 346 0 0 1-343 343z m73-417a102 102 0 0 0-73-29 99 99 0 0 0-39 8 96 96 0 0 0-33 22 103 103 0 0 0-22 34 103 103 0 0 0 0 78 107 107 0 0 0 22 33 96 96 0 0 0 33 22 99 99 0 0 0 39 8 101 101 0 0 0 73-30 102 102 0 0 0 0-145z m150-309c13 15 27 31 39 47h96a36 36 0 0 0 33-22l107-250a37 37 0 0 0 2-17 36 36 0 0 0-5-16 39 39 0 0 0-13-12 36 36 0 0 0-17-4h-928a36 36 0 0 0-17 4 34 34 0 0 0-13 12 36 36 0 0 0-6 16 34 34 0 0 0 3 17l107 250a34 34 0 0 0 13 16 36 36 0 0 0 20 6h97c12-16 25-31 38-45a1381 1381 0 0 1 132-130c19-17 35-28 47-38 7-5 12-9 17-11a47 47 0 0 1 14-7 39 39 0 0 1 29 2l8 4c6 4 11 8 16 11 13 10 28 22 48 38a1368 1368 0 0 1 133 129z" horiz-adv-x="999" />

<glyph glyph-name="login" unicode="&#xe811;" d="M680 130a32 32 0 0 1-31-32v-144a39 39 0 0 0-13-29 42 42 0 0 0-28-12h-505a42 42 0 0 0-42 42v792a42 42 0 0 0 42 42h505a42 42 0 0 0 28-12 39 39 0 0 0 13-29v-146a32 32 0 0 1 63 0v145a102 102 0 0 1-31 73 101 101 0 0 1-73 30h-505a102 102 0 0 1-73-30 101 101 0 0 1-30-73v-793a101 101 0 0 1 30-73 102 102 0 0 1 73-31h505a104 104 0 0 1 102 104v144a32 32 0 0 1-30 32z m288 252h-500l90 90a32 32 0 0 1-44 45l-144-146a51 51 0 0 1-6-8 30 30 0 0 1-2-12 24 24 0 0 1 2-11 33 33 0 0 1 6-11l144-144a31 31 0 0 1 22-9 31 31 0 0 1 22 9 32 32 0 0 1 0 45l-90 90h500a32 32 0 0 1 0 63z" horiz-adv-x="1000" />

<glyph glyph-name="phone" unicode="&#xe812;" d="M52 181l257 32 123-133c139 76 252 198 322 347l-124 133 30 277h269c29-536-380-977-877-947v291z" horiz-adv-x="944" />

<glyph glyph-name="rate" unicode="&#xe813;" d="M1021 350l-102-107 31-140-137-45-45-137-140 30-107-101-107 101-141-30-44 137-137 45 30 140-101 107 101 107-30 141 137 44 44 137 141-30 107 101 107-101 140 30 45-137 137-44-31-141 102-107h0z m-163 195l-108 35-34 108-112-24-83 79-84-79-111 24-35-108-108-35 24-111-79-84 79-83-24-112 108-35 35-107 111 24 84-80 83 79 112-23 35 107 107 35-24 112 79 83-79 84 24 111z m-337-491l-88 175-194 30 140 137-32 194 174-91 174 91-32-194 139-137-193-30-88-175z m71 394l-71-37-71 37 13-79-57-56 79-12 36-72 36 72 79 12-57 56 13 79z" horiz-adv-x="1042" />

<glyph glyph-name="search-1" unicode="&#xe814;" d="M992-103l-210 210a450 450 0 1 1-39-39l210-210a27 27 0 0 1 19-8 27 27 0 0 1 20 8 27 27 0 0 1 0 39z m-147 506a393 393 0 1 0-394 392 393 393 0 0 0 393-392z" horiz-adv-x="1000" />

<glyph glyph-name="share" unicode="&#xe815;" d="M804 243a195 195 0 0 1-156-79l-263 132a208 208 0 0 1 8 54 208 208 0 0 1-8 54l263 132a195 195 0 1 1-42 118 208 208 0 0 1 9-54l-262-132a196 196 0 1 1 0-236l262-132a204 204 0 0 1-8-54 197 197 0 1 1 197 197z m0 536a125 125 0 1 0-125-125 125 125 0 0 0 125 125z m-608-554a125 125 0 1 0 125 125 125 125 0 0 0-125-125z m608-304a125 125 0 1 0 125 125 125 125 0 0 0-125-125z" horiz-adv-x="1000" />

<glyph glyph-name="shield" unicode="&#xe816;" d="M967 817a111 111 0 0 1-80 33h-775a112 112 0 0 1-112-112v-211a716 716 0 0 1 460-669 112 112 0 0 1 40-8 108 108 0 0 1 40 8 716 716 0 0 1 459 669v211a111 111 0 0 1-32 79z m-51-290a633 633 0 0 0-406-592 28 28 0 0 0-20 0 633 633 0 0 0-407 592v211a29 29 0 0 0 8 21 28 28 0 0 0 21 8h776a29 29 0 0 0 29-29z m-234 64l-259-291-111 82a42 42 0 1 1-50-66l142-106a42 42 0 0 1 25-9 42 42 0 0 1 31 14l284 322a42 42 0 1 1-62 55z" horiz-adv-x="1000" />

<glyph glyph-name="shop-bag" unicode="&#xe817;" d="M910-40l-64 575a26 26 0 0 1-26 23h-156v83a208 208 0 1 1-417 0v-83h-156a26 26 0 0 1-26-23l-64-575a100 100 0 0 1 4-41 97 97 0 0 1 21-37 98 98 0 0 1 34-24 100 100 0 0 1 40-8h711a99 99 0 0 1 41 8 98 98 0 0 1 33 24 97 97 0 0 1 21 37 99 99 0 0 1 4 41z m-611 681a156 156 0 1 0 312 0v-83h-312z m557-706a48 48 0 0 0-9-17 48 48 0 0 0-16-12 61 61 0 0 0-20-4h-711a43 43 0 0 0-20 3 44 44 0 0 0-15 12 44 44 0 0 0-10 17 43 43 0 0 0-2 19l61 552h683l61-552a43 43 0 0 0-2-18z" horiz-adv-x="911" />

<glyph glyph-name="star" unicode="&#xe818;" d="M576 46l342-196-91 370 302 249-397 32-156 349-155-349-397-32 302-249-91-370 341 196z" horiz-adv-x="1150" />

<glyph glyph-name="store" unicode="&#xe819;" d="M893 278a36 36 0 0 1-36-35v-322h-250v322a36 36 0 0 1-71 0v-72h-393v72a36 36 0 0 1-36 35 35 35 0 0 1-35-35v-322a72 72 0 0 1 21-50 73 73 0 0 1 50-21h714a71 71 0 0 1 51 21 72 72 0 0 1 21 50v322a36 36 0 0 1-36 35z m-750-357v179h393v-179z m854 657l-107 250a37 37 0 0 1-33 22h-714a37 37 0 0 1-33-22l-107-250a39 39 0 0 1-3-14v-71a179 179 0 0 1 179-179h20a176 176 0 0 1 125 53 164 164 0 0 1 16 18 216 216 0 0 1 14-18 178 178 0 0 1 125-53h36a178 178 0 0 1 125 53 198 198 0 0 1 17 20 155 155 0 0 1 16-20 177 177 0 0 1 125-53h18a179 179 0 0 1 184 179v71a39 39 0 0 1-3 14z m-831 201h667l77-179h-820z m109-362a107 107 0 0 0-76-32h-20a108 108 0 0 0-108 108v36h233v-47a106 106 0 0 0-29-65z m319 0a106 106 0 0 0-76-32h-36a107 107 0 0 0-106 97 103 103 0 0 1 0 11v36h249v-36a108 108 0 0 0-31-76z m303 0a105 105 0 0 0-76-32h-17a108 108 0 0 0-108 108v36h233v-36a106 106 0 0 0-33-76z" horiz-adv-x="1000" />

<glyph glyph-name="user" unicode="&#xe81a;" d="M385 389a231 231 0 1 1-231 230 231 231 0 0 1 231-230z m0 384a154 154 0 1 0-154-154 154 154 0 0 0 154 154z m384-843a385 385 0 0 1-367 381h-35a385 385 0 0 1-367-381v-42a38 38 0 0 1 39-38h692a38 38 0 0 1 38 38z m-76-3h-616v3a308 308 0 0 0 147 259 306 306 0 0 0 147 45h28a306 306 0 0 0 147-45 308 308 0 0 0 147-259z" horiz-adv-x="769" />

<glyph glyph-name="arrow-down" unicode="&#xe81b;" d="M1829 809c19 16 44 26 71 26 26 0 52-10 71-26 19-17 29-39 29-63a83 83 0 0 0-29-62l-900-793a102 102 0 0 0-33-19 112 112 0 0 0-76 0 102 102 0 0 0-33 19l-900 793a83 83 0 0 0-29 62c0 24 11 46 29 63 19 16 45 26 71 26 27 0 52-10 71-26l829-731 829 731z" horiz-adv-x="2000" />

<glyph glyph-name="view" unicode="&#xe81c;" d="M1361 457c-122 147-370 393-662 393s-540-246-662-393a175 175 0 0 1 0-214c122-147 370-393 662-393s541 246 662 393a175 175 0 0 1 0 214z m-79-151c-109-133-332-356-583-356s-474 225-583 356a75 75 0 0 0 0 88c109 131 330 356 583 356s474-225 583-356a70 70 0 0 0 14-44 74 74 0 0 0-14-44z m-583 294a250 250 0 1 1 250-250 250 250 0 0 1-250 250z m0-400a150 150 0 1 0 150 150 150 150 0 0 0-150-150z" horiz-adv-x="1398" />

<glyph glyph-name="hamburger-menu" unicode="&#xe81d;" d="M100 650c-9 0-17-3-24-10-6-6-9-14-9-23 0-9 3-18 9-24 7-6 15-10 24-10h800c9 0 17 4 24 10 6 6 9 15 9 24 0 9-3 17-9 23-7 7-15 10-24 10h-800z m-33-300c0 9 3 17 9 24 7 6 15 9 24 9h800c9 0 17-3 24-9 6-7 9-15 9-24 0-9-3-17-9-24-7-6-15-9-24-9h-800c-9 0-17 3-24 9-6 7-9 15-9 24z m0-267c0 9 3 18 9 24 7 6 15 10 24 10h800c9 0 17-4 24-10 6-6 9-15 9-24 0-8-3-17-9-23-7-6-15-10-24-10h-800c-9 0-17 4-24 10-6 6-9 15-9 23z" horiz-adv-x="1000" />

<glyph glyph-name="lock" unicode="&#xe81e;" d="M678 493v71a285 285 0 0 1-487 203 283 283 0 0 1-83-202v-72a107 107 0 0 1-107-107v-429a107 107 0 0 1 106-107h571a107 107 0 0 1 107 107v429a107 107 0 0 1-107 107z m-500 71a215 215 0 0 0 429 0v-71h-429z m536-607a36 36 0 0 0-36-36h-571a36 36 0 0 0-36 36v429a35 35 0 0 0 36 35h571a36 36 0 0 0 36-35z m-321 286a72 72 0 1 1 71-72 72 72 0 0 1-71 72z" horiz-adv-x="786" />

<glyph glyph-name="user-circle" unicode="&#xe81f;" d="M500 241a215 215 0 1 1-215 215 216 216 0 0 1 215-215z m0 356a141 141 0 1 0-141-141 141 141 0 0 0 141 143z m500-247a502 502 0 1 1-177-381h0l0 0a498 498 0 0 1 177 381z m-925 0a426 426 0 1 0 734-291 402 402 0 0 1-116 99 399 399 0 0 1-386 0 387 387 0 0 1-116-99 423 423 0 0 0-116 291z m170-341a318 318 0 0 0 409 85 318 318 0 0 0 97-86 422 422 0 0 0-506 1z" horiz-adv-x="1000" />

<glyph glyph-name="aparat" unicode="&#xe820;" d="M297 850a172 172 0 0 1-172-134l-26-115c75 119 200 202 345 219l-113 26a172 172 0 0 1-34 4z m203-79c-233 0-421-188-421-421 0-232 188-421 421-421s421 189 421 421c0 233-188 421-421 421z m251-20c119-75 202-200 219-345l26 113a172 172 0 0 1-130 206z m-356-111a105 105 0 0 0 0-211 105 105 0 0 0 0 211z m289-79a105 105 0 0 0 0-211 105 105 0 0 0 0 211z m-184-157a53 53 0 0 0 53-54 53 53 0 0 0-106 0 53 53 0 0 0 53 54z m-184-54a105 105 0 0 0 0-210 105 105 0 0 0 0 210z m-286-56l-26-113a172 172 0 0 1 130-206l115-26c-119 75-202 200-219 345z m575-23a105 105 0 0 0 0-210 105 105 0 0 0 0 210z m296-172c-75-119-200-202-345-219l113-26a172 172 0 0 1 206 130z" horiz-adv-x="1000" />

<glyph glyph-name="plus" unicode="&#xe821;" d="M608 432h330v-192h-330v-375h-207v375h-328v192h328v354h207v-354z" horiz-adv-x="1000" />

<glyph glyph-name="filter" unicode="&#xe822;" d="M42 652h114c22-83 108-132 190-109 54 14 95 56 110 109h502c23 0 42 19 42 42 0 23-19 41-42 41h-502c-23 83-108 132-191 110-53-15-95-56-109-110h-114c-23 0-42-18-42-41 0-23 19-42 42-42z m916-260h-114c-22 82-107 131-190 109-53-14-95-56-109-109h-503c-23 0-42-19-42-42 0-23 19-42 42-42h503c22-82 107-131 190-109 53 15 95 56 109 109h114c23 0 42 19 42 42 0 23-19 42-42 42z m0-344h-502c-23 83-108 132-191 109-53-14-95-56-109-109h-114c-23 0-42-19-42-42 0-23 19-41 42-41h114c22-83 108-132 190-110 54 15 95 56 110 110h502c23 0 42 18 42 41 0 23-19 42-42 42z" horiz-adv-x="1000" />

<glyph glyph-name="order" unicode="&#xe823;" d="M237 832c-11-6-20-15-24-25-4-9-5-24-5-393v-384l-58 58c-39 39-62 60-67 63-10 4-29 4-37 1-9-4-23-17-27-26-5-12-5-28 0-39 6-13 208-214 219-219 11-4 27-4 38 0 11 4 211 203 217 215 6 13 8 22 5 34-3 14-13 27-26 33-11 5-31 6-42 0-5-3-34-30-66-62l-56-57-2 384-1 385-5 9c-6 12-13 18-24 23-11 4-30 4-39 0z m201-95c-5-1-13-6-19-11-25-23-20-63 11-78l12-6h253c241 0 253 0 262 4 17 8 28 25 28 45 0 19-8 33-26 43l-9 5-252 0c-161 0-254 0-260-2z m-6-197c-40-17-37-78 4-90 6-2 87-2 264-2l255 1 8 6c5 3 12 10 15 14 6 8 6 12 6 27 0 15 0 18-6 26-3 5-10 12-15 15l-8 6-258 0c-226 1-258 0-265-3z m-2-196c-21-10-31-32-25-54 3-17 19-32 36-36 9-1 60-2 188-1l175 0 11 6c15 9 23 22 24 40 1 16-3 27-15 38-14 13-6 13-203 13h-179l-12-6z" horiz-adv-x="1000" />

<glyph glyph-name="close" unicode="&#xe824;" d="M51 799c-39-10-60-47-47-86 3-10 37-46 189-196l185-185-185-184c-152-151-186-187-189-197-17-52 27-99 79-84 16 5 22 11 202 189l185 184 185-184c152-150 188-184 198-188 54-17 101 29 83 83-3 10-37 46-189 197l-185 184 185 185c152 150 186 186 189 196 17 52-27 99-79 84-16-5-23-11-202-189l-185-184-185 184c-179 178-186 184-202 189-18 5-19 5-32 2z" horiz-adv-x="941" />

<glyph glyph-name="close-circle" unicode="&#xe825;" d="M853 703a500 500 0 1 1 0-706 501 501 0 0 1 0 706z m-58-649a418 418 0 1 0 0 592 419 419 0 0 0 0-592z m-116 475a41 41 0 0 1-59 0l-121-120-120 120a41 41 0 0 1-59 0 42 42 0 0 1 0-59l122-120-122-120a42 42 0 0 1 0-59 42 42 0 0 1 30-12 41 41 0 0 1 29 12l120 121 121-121a40 40 0 0 1 29-12 42 42 0 0 1 30 12 42 42 0 0 1 0 59l-120 120 121 121a41 41 0 0 1-1 58z" horiz-adv-x="1000" />

<glyph glyph-name="search" unicode="&#xe826;" d="M361 850c96 0 188-38 256-106 67-67 105-159 105-255 0-90-33-172-86-235l15-15h43l278-278-83-83-278 278v43l-15 15c-63-53-145-86-235-86-96 0-187 38-255 106-68 67-106 159-106 255 0 96 38 188 106 255 68 68 159 106 255 106z m0-111c-139 0-250-111-250-250 0-139 111-250 250-250 139 0 250 111 250 250 0 139-111 250-250 250z" horiz-adv-x="1000" />

<glyph glyph-name="bag" unicode="&#xe827;" d="M565 496c-6-110-90-197-193-197-103 0-188 87-193 197h38c2-43 19-81 45-109 28-30 67-49 110-49 42 0 81 19 109 49 26 28 43 66 46 109h38z m-528 120h22l-2 3-57 154 194 77 74-197 312 151 88-188h38v-762h-669v762z m68 0h128l0 2-65 173-112-44 49-131z m190 0h324l-60 128-264-128z m373-39h-593v-684h593v684z" horiz-adv-x="706" />

<glyph glyph-name="arrow-up-1" unicode="&#xe828;" d="M103 353l396 396 396-396-71-71-275 275 0-709-100 0 0 709-275-275-71 71 0 0z m396 396l500 0 0 100-1001 0 0-100 501 0z" horiz-adv-x="1000" />

<glyph glyph-name="bag-1" unicode="&#xe829;" d="M978 62l20-174c1-11-2-20-9-28-7-8-16-12-27-12l-928 0c-11 0-20 4-27 12-7 8-10 17-9 28l20 174 960 0z m-52 468l48-432-952 0 48 432c1 9 5 17 11 23 7 6 15 9 24 9l143 0 0-71c0-20 7-37 21-51 14-14 31-21 50-21 20 0 37 7 51 21 14 14 21 31 21 51l0 71 214 0 0-71c0-20 7-37 21-51 14-14 31-21 50-21 20 0 37 7 51 21 14 14 21 31 21 51l0 71 142 0c10 0 18-3 24-9 7-6 11-14 12-23l0 0z m-214 103l0-142c0-10-4-18-11-26-7-7-15-10-25-10-9 0-18 3-25 10-7 8-10 16-10 26l0 142c0 40-14 73-42 101-28 28-62 42-101 42-40 0-73-14-101-42-28-28-42-61-42-101l0-142c0-10-4-18-11-26-7-7-15-10-25-10-9 0-18 3-25 10-7 8-10 16-10 26l0 142c0 59 21 110 62 152 42 42 93 63 152 63 59 0 109-21 151-63 42-42 63-93 63-152l0 0z" horiz-adv-x="1000" />

<glyph glyph-name="bag3" unicode="&#xe82a;" d="M674 437l100 0 0-500-694 0 0 500c117 0 95 22 95-100l100 0 0 100 295 0c0-124-21-100 104-100 6 25 11 75 0 100z m-399 114c0 51 3 93 36 129 71 76 183 68 238-15 12-18 19-36 21-64 2-56 7-65-10-65l-270 0c-11 0-15 4-15 15z m-304-99l0-485c0-63 30-129 94-129l724 0c37 0 85 48 85 84l0 574c0 58-122 41-155 40-81-1-16 12-58 132-60 175-288 229-420 87-123-133-22-216-90-219-112-5-180 36-180-84z" horiz-adv-x="903" />

<glyph glyph-name="chev-box-down" unicode="&#xe82b;" d="M1653 844v-290l-827-711-827 711v290c412 0 1241 0 1654 0z" horiz-adv-x="1654" />

<glyph glyph-name="close-square" unicode="&#xe82c;" d="M881 842l-150 0-478 0-150 0c-61 0-111-50-111-111l0-150 0-483 0-145c0-61 50-111 111-111l150 0 483 0 145 0c61 0 111 50 111 111l0 150 0 478 0 150c0 61-50 111-111 111l0 0z m-189-778l-200 200-200-200-78 78 200 200-200 200 78 78 200-200 200 200 78-78-200-200 200-200-78-78z" horiz-adv-x="1000" />

<glyph glyph-name="compare-1" unicode="&#xe82d;" d="M76 736l369 0 0 102 118 0 0-102 0-770 0-102-118 0 0 102-369 0c-38 0-70 32-70 71l0 629c0 39 32 70 70 70l0 0z m818-69l-70 0-144 0-84 0 0 84 335 0c26 0 48-22 48-49l0-701c0-26-22-48-48-48l-335 0 0 84 84 0 144 0 70 0 0 629 0 1z" horiz-adv-x="1011" />

<glyph glyph-name="ecut" unicode="&#xe82e;" d="M530 425l0 0-390 0 0 279 380 0 0 140-520 0 0-979 520 0 0 140-380 0 0 280 387 0c29-250 241-445 498-445 192 0 359 108 444 266l-169 0c-67-77-165-126-275-126-199 0-361 163-361 362 0 200 162 362 361 362 108 0 205-47 272-122l170 0c-85 156-251 262-442 262-248 0-455-181-495-419z m1577-238l0 517 288 0 0-837 140 0 0 837 188 0 0 140-210 0-118 0-288 0 0 0-140 0 0-659 0-6c0-1 6-95-49-149-25-25-61-39-108-42-2 0-5-1-8-1-4 0-8 0-13 0-4 0-9 0-13 0-3 0-5 1-8 1-46 3-83 17-108 41-55 55-49 150-49 150l0 3 0 662-140 0 0-657c-1-25-4-163 90-257 46-46 106-72 178-81l0 0c4 0 7 0 11-1 3 0 7 0 11 0 2-1 4-1 6-1 7 0 14 0 22 0 0 0 0 0 0 0 0 0 0 0 1 0 7 0 14 0 21 0 2 0 4 0 6 1 4 0 8 0 11 0 4 1 7 1 11 1l0 0c72 9 132 35 178 81 94 94 91 232 90 257l0 0z" horiz-adv-x="2723" />

<glyph glyph-name="ecut-fa" unicode="&#xe82f;" d="M2185 721l-91-92-104 105 104 104 91-92 91 92 105-104-7-7-98-98-91 92 0 0z m-466 114l-81 0-197 0-1 0-94 0 0-451 0-4c0-1 3-65-34-102-17-17-42-27-74-29-2 0-4 0-5 0-3 0-6 0-9 0-3 0-6 0-9 0-2 0-4 0-5 0-32 2-57 12-74 28-38 38-34 103-34 103l0 2 0 453-96 0 0-449c-1-18-3-112 62-176 31-32 72-50 122-56l0 0c2 0 4 0 7 0 2-1 5-1 7-1 2 0 3 0 4 0 5 0 10-1 15-1 1 0 1 1 1 1 0 0 0-1 0-1 5 0 10 1 15 1 1 0 3 0 4 0 3 0 5 0 8 1 2 0 4 0 7 0l0 0c49 6 90 24 122 56 64 64 62 158 61 176l0 353 197 0 0-573 96 0 0 573 129 0 0 96-144 0 0 0z m-830-505c-45-53-113-86-188-86-136 0-247 111-247 248 0 136 111 247 247 247 74 0 140-32 186-84l116 0c-58 107-171 180-302 180-170 0-311-124-339-287l-267 0 0 191 261 0 0 96-356 0 0-670 356 0 0 96-261 0 0 191 265 0c20-171 165-304 341-304 131 0 246 74 303 182l-115 0 0 0z m2377-390l-92-91-104 104 105 104 91-91 91 91 104-104-6-7-98-98-91 92 0 0z m-286 902l488 0 0-87-287 0c5-5 10-9 15-14 64-64 103-152 103-250 0-97-43-188-107-252-4-4-9-8-14-13l89 0c104 0 103 132 103 132l0 1 0 223 90 0 0-230c1-9 2-213-190-213l-210 0-72 0-36 0c-2 0-4 0-5 0-15 0-31 1-45 3l-2 0 0 0c-78 10-149 47-203 100-59 60-98 141-102 230l-1 0 0 19 0 353 88 0 0-120c5 6 10 12 15 17 64 64 152 103 250 103 11 0 22 0 33-2l0 0z m648-703l-79 0 0 705 88 0 0-705-9 0z m-1109 431l0-220c1-10 6-211-186-211l-296 0c-192 0-187 201-186 211l0 229 90 0 0-223 0 0c0-1-5-129 99-129l290 0c104 0 99 128 99 129l0 0 0 223 90 0 0-9 0 0z m240-266c48-48 115-78 188-78 73 0 139 30 187 78 48 48 78 114 78 187 0 74-30 140-78 188-48 48-114 77-187 77-73 0-140-29-188-77-48-48-77-114-77-188 0-73 29-139 77-187l0 0z m-2695-458c-12 0-24 2-34 7-11 4-20 10-26 19-7 8-10 19-10 31l19 0c0-13 4-23 13-30 10-7 22-11 38-11 14 0 25 3 33 9 8 6 12 14 12 24 0 6-1 11-3 15-2 4-6 8-11 11-4 3-9 5-14 7-6 2-12 4-20 7-2 0-6 2-13 4-7 2-14 5-19 8-10 5-18 11-22 18-5 7-7 15-7 24 0 9 2 18 8 25 5 8 12 14 22 18 10 4 20 6 33 6 11 0 22-2 32-7 10-4 17-11 23-19 6-8 9-19 9-30l-19 0c0 12-4 22-12 29-8 8-19 11-33 11-14 0-25-3-33-9-8-6-11-14-11-24 0-10 4-18 14-24 4-3 9-5 14-7 5-2 11-4 19-7 8-2 15-4 20-6 6-2 11-5 16-8 9-5 16-11 20-18 4-6 6-14 6-23 0-9-2-17-7-25-5-7-12-13-21-18-10-4-22-7-36-7l0 0z m238 189l18 0 0-186-18 0 0 186z m204 0l19 0 103-154 0 154 18 0 0-186-18 0-103 154 0-154-19 0 0 186 0 0z m324 0l115 0 0-16-97 0 0-67 85 0 0-15-85 0 0-73 98 0 0-15-116 0 0 186 0 0z m350-189c-13 0-24 3-35 9-11 7-20 16-26 29-7 13-10 28-10 47l0 22c0 17 3 32 9 45 6 13 15 23 26 29 11 7 23 11 37 11 20 0 36-6 47-16 12-11 19-26 21-46l-19 0c-2 16-7 27-15 35-8 7-19 11-34 11-16 0-30-6-39-18-10-13-14-30-14-52l0-21c0-14 2-26 6-37 4-10 10-18 18-24 8-5 17-8 28-8 15 0 27 3 35 10 8 8 13 19 15 35l19 0c-2-19-9-35-21-45-12-11-28-16-48-16l0 0z m243 189l116 0 0-16-97 0 0-67 84 0 0-15-84 0 0-73 98 0 0-15-117 0 0 186 0 0z m419-186l-19 0 0 164-49-18 0 17 65 24 3 0 0-187 0 0z m303 85c-4-7-10-13-18-17-8-5-17-7-27-7-9 0-18 3-26 8-9 5-15 12-20 22-4 9-7 20-7 33 0 13 3 24 7 34 5 10 12 17 21 23 9 5 18 8 29 8 19 0 33-7 44-20 10-14 15-32 15-56l0-12c0-28-4-49-13-65-14-25-37-37-72-37l-5 0 0 15 5 0c44 0 66 24 67 71l0 0z m-80 39c0-9 2-17 5-24 3-8 8-13 14-17 5-4 12-6 19-6 10 0 18 2 26 8 8 6 13 13 16 22l0 9c0 17-3 31-11 42-7 10-17 15-30 15-6 0-13-2-18-5-6-4-11-9-15-17-4-7-6-16-6-27z m363-39c-4-7-10-13-18-17-8-5-17-7-27-7-9 0-18 3-26 8-9 5-15 12-20 22-4 9-7 20-7 33 0 13 3 24 8 34 4 10 11 17 20 23 8 5 18 8 29 8 19 0 33-7 44-20 10-14 15-32 15-56l0-12c0-28-4-49-13-65-14-25-37-37-72-37l-5 0 0 15 5 0c44 0 66 24 67 71l0 0z m-80 39c0-9 2-17 5-24 3-8 8-13 13-17 6-4 13-6 20-6 10 0 18 2 26 8 8 6 13 13 16 22l0 9c0 17-3 31-11 42-7 10-17 15-30 15-6 0-13-2-19-5-5-4-10-9-14-17-4-7-6-16-6-27l0 0z m343-124l-19 0 0 164-49-18 0 17 65 24 3 0 0-187 0 0z" horiz-adv-x="3643" />

<glyph glyph-name="fast-shop" unicode="&#xe830;" d="M1082-156l-824 0c-30 0-58 13-78 33-20 20-32 47-32 78l0 4 17 98 90 0-17-104c0-5 3-9 6-12 4-4 9-6 14-6l824 0c6 0 11 2 14 6 4 3 6 7 6 12l-86 518c-2 9-5 16-9 19-4 4-10 5-20 5l-16 0-19 0-90 0-384 0-90 0-17 0-18 0c-9 0-16-1-19-5-5-3-7-10-10-19l-15-94-91 0 17 103c9 44 27 70 51 86 23 15 50 19 78 19l39 0c19 73 52 136 96 181 47 50 107 80 171 80 65 0 124-30 171-80 44-45 78-108 96-181l39 0c28 0 55-4 79-19 23-16 41-42 50-86l87-521 0-4c0-31-12-58-32-78-20-20-47-33-78-33z m-1055 254c-15 0-28 11-28 24 0 14 13 24 28 24l426 0c15 0 27-10 27-24 0-13-12-24-27-24l-426 0z m31 93c-15 0-27 11-27 25 0 13 12 24 27 24l426 0c15 0 27-11 27-24 0-14-12-25-27-25l-426 0z m47 94c-15 0-27 11-27 24 0 13 12 24 27 24l426 0c15 0 27-11 27-24 0-13-12-24-27-24l-426 0z m565 471c-40 0-77-20-108-53-28-29-51-70-66-118l348 0c-15 48-38 89-66 118-31 33-68 53-108 53z" horiz-adv-x="1193" />

<glyph glyph-name="loc-pack" unicode="&#xe831;" d="M932 428l-23 58-301-5 3 13c0 3 1 5 1 8 1 3 1 6 2 9 0 3 0 5 1 8 0 3 0 6 0 9l1 15c109 0 217 3 326 3l13-54 36-68 1-4c0-122-5-245-7-367-204-2-407-4-611-7 26 40 153 208 218 380l340 2 0 0z m-328-64l-146-260 470 4 6 259-330-3z m-285 461c-174 0-315-141-315-316 0-163 260-516 290-556 6-8 15-12 25-12 10 0 20 4 26 12 29 40 290 393 290 556 0 175-141 316-316 316l0 0z m0-158c-87 0-158-71-158-158 0-87 71-158 158-158 87 0 158 71 158 158 0 87-71 158-158 158l0 0z m0-253c-52 0-94 43-94 95 0 52 42 95 94 95 53 0 95-43 95-95 0-52-42-95-95-95l0 0z m0-388c-88 123-252 375-252 483 0 140 113 253 252 253 140 0 253-113 253-253 0-108-164-360-253-483z" horiz-adv-x="1011" />

<glyph glyph-name="login-1" unicode="&#xe832;" d="M100 838l541 0c62 0 114-51 114-114l0-192-72 0 0 192c0 12-5 22-13 30-7 7-18 12-29 12l-541 0c-11 0-22-5-29-12-8-8-13-18-13-30l0-775c0-11 5-22 13-29 7-8 18-13 29-13l541 0c11 0 22 5 29 13 8 7 13 18 13 29l0 192 72 0 0-192c0-62-52-113-114-113l-541 0c-62 0-113 51-113 113l0 775c0 63 51 114 113 114z m175-501l295 257c7 6 19 8 28 5l0-146 226 0c27 0 48-21 48-48l0-135c0-26-21-48-48-48l-226 0 0-147c-9-4-21-2-29 5l-294 257z" horiz-adv-x="886" />

<glyph glyph-name="login2" unicode="&#xe833;" d="M-11 845l672 0 0-272-49 0 0 222-573 0 0-896 573 0 0 218 49 0 0-267-672 0 0 995z m240-498l307 265 0-149 186 0 0-231-186 0 0-149-307 264z" horiz-adv-x="732" />

<glyph glyph-name="measure" unicode="&#xe834;" d="M359 635c13-109 529-112 498 24-14 65-187 83-262 82-53-1-106-8-152-24-36-12-90-39-84-82z m189-192l851 0-4-557-158 0 0 306-36 0 0-306-166 0 0 165-36 0 0-164-165-1 0 306-36 0 0-303-167-3 0 165-36 0 0-165c-63 2-107 2-165 7l0 299-36 0 0-295c-44 6-97 14-172 30l0 124-36 0 0-117c-43 12-102 43-126 64-47 42-33 92-33 170 0 118-10 295 2 406 77-76 368-143 519-131l0 0z m-77 372c408 40 955-115 593-271-224-98-767-90-958 24-34 20-96 56-60 111 59 92 321 126 425 136l0 0z m740-345c0 175 42 249-184 322-246 78-637 77-876-13-188-71-152-135-152-349 0-83 0-166 0-249 0-98-12-152 51-200 92-71 247-101 385-114 174-18 775-9 992-9l0 610-216 2 0 0z" horiz-adv-x="1431" />

<glyph glyph-name="prev" unicode="&#xe835;" d="M128-120l739 0c58 0 105 47 105 105l0 739c0 58-47 105-105 105l-739 0c-58 0-106-47-106-105l0-739c0-58 48-105 106-105z m475 738l0-527-317 264 317 263z" horiz-adv-x="1011" />

<glyph glyph-name="ruler" unicode="&#xe836;" d="M-1-147l4769 0 0 58 0 877 0 59-4769 0 0-59 0-877 0-58z m4548 58l0 228-44 0 0-228-169 0 0 425-45 0 0-425-169 0 0 228-45 0 0-228-169 0 0 425-45 0 0-425-169 0 0 228-45 0 0-228-169 0 0 425-44 0 0-425-170 0 0 228-44 0 0-228-169 0 0 425-45 0 0-425-169 0 0 228-45 0 0-228-169 0 0 425-45 0 0-425-169 0 0 228-44 0 0-228-169 0 0 425-45 0 0-425-169 0 0 228-45 0 0-228-169 0 0 425-45 0 0-425-169 0 0 228-45 0 0-228-169 0 0 425-44 0 0-425-170 0 0 228-44 0 0-228-169 0 0 425-45 0 0-425-169 0 0 228-45 0 0-228-169 0 0 425-45 0 0-425-169 0 0 228-44 0 0-228-169 0 0 877 4652 0 0-877-163 0 0 0z" horiz-adv-x="4769" />

<glyph glyph-name="search-2" unicode="&#xe837;" d="M396 725a271 271 0 0 0 271-271c0-67-25-129-65-176l11-11h33l208-209-62-62-209 208v33l-11 11c-47-40-109-65-176-65a271 271 0 0 0-271 271 271 271 0 0 0 271 271m0-83c-104 0-188-84-188-188 0-104 84-187 188-187 104 0 187 83 187 187 0 104-83 188-187 188z" horiz-adv-x="1000" />

<glyph glyph-name="search2" unicode="&#xe838;" d="M99 375c0 102 5 175 92 260 72 71 149 87 244 87 150 0 294-144 294-294 0-89-3-125-54-203-44-67-148-133-229-133-71 0-107-4-173 30-25 13-67 40-85 59-8 8-9 10-15 18-37 48-74 108-74 176z m-113 53c0-140 37-237 125-324 94-95 188-125 335-125 105 0 165 52 230 86l233-231 78 75-233 235c57 102 87 124 87 274 0 128-61 229-127 295-54 54-127 94-203 112-20 4-70 13-93 14-70 4-175-32-240-73-23-15-41-29-59-48-38-38-64-70-90-119-21-40-43-109-43-171z m278 128l74-76c51 36 110 43 155-5 22-23 20-35 28-68l106 0c0 73-20 109-65 154-19 18-35 28-61 40-83 40-200 10-237-45z" horiz-adv-x="1000" />

<glyph glyph-name="share-1" unicode="&#xe839;" d="M765 68c47 11 88-24 96-64 11-52-24-91-64-99-102-23-147 136-32 163l0 0z m-560 339c112 22 137-141 37-163-112-24-144 141-37 163z m560 383c48 11 88-26 96-64 11-53-23-89-61-99-104-27-151 137-35 163z m-84-170c118-121 290 23 215 154-50 88-184 94-235-5-22-43-11-61-9-106-19-16-51-33-72-46-35-22-276-176-287-176-22 0-41 25-95 15-56-10-105-58-108-120-7-102 93-176 190-130 23 10 33-5 76-29 82-47 215-129 291-169 0-46 2-70 25-100 74-95 203-58 234 34 54 159-166 243-239 115-24 7-290 172-334 190 18 44 42 88 0 154 11 12 68 45 87 56l261 163 0 0z" horiz-adv-x="1011" />

<glyph glyph-name="star-empty" unicode="&#xe83a;" d="M635 290l170 166-235 34-106 213-105-213-236-34 171-166-41-235 211 111 211-111z m294 199q0-12-15-27l-202-197 48-279q0-4 0-12 0-28-23-28-10 0-22 7l-251 132-250-132q-12-7-23-7-11 0-17 9t-6 19q0 4 1 12l48 279-203 197q-14 15-14 27 0 21 31 26l280 40 126 254q11 23 27 23t28-23l125-254 280-40q32-5 32-26z" horiz-adv-x="928.6" />

<glyph glyph-name="user-1" unicode="&#xe83b;" d="M107-73c8-50 46-55 101-55l473 0c129 0 205-30 194 117-10 115-15 164-73 240-19 24-54 52-89 69-57 29-55 3-110-18-97-36-182-21-265 21-36 18-51 14-107-27-105-75-141-241-124-347l0 0z m145 630c40-313 525-255 479 66-45 310-520 251-479-66z" horiz-adv-x="1011" />

<glyph glyph-name="user-circle-1" unicode="&#xe83c;" d="M497 613c101 0 183-82 183-183 0-101-82-182-183-182-101 0-182 81-182 182 0 101 81 183 182 183z m-377-507c7-10 4-24-6-30-10-7-24-4-31 6-26 40-46 84-60 130-13 45-20 93-20 141 0 137 55 261 145 351 90 90 215 146 352 146 137 0 262-56 352-146 90-90 145-214 145-351 0-48-7-96-20-141-14-46-34-90-60-130-7-10-20-13-31-6-10 6-13 20-6 30 23 37 42 77 54 118 12 42 19 85 19 129 0 125-51 238-133 320-82 82-195 132-320 132-125 0-238-50-320-132-82-82-133-195-133-320 0-44 7-87 19-129 12-41 31-81 54-118z m87-53c-14-12-33-27-45-41-18-22 9-40 24-52 53-42 101-68 170-89 94-30 209-27 301 4 61 20 121 54 167 94 7 7 17 11 19 25 3 38-124 112-157 122-157 66-337 51-479-63z" horiz-adv-x="1000" />

<glyph glyph-name="chev-left" unicode="&#xe83d;" d="M600 789l-65 61-535-500 535-500 65 60-470 440 470 439z" horiz-adv-x="600" />
</font>
</defs>
</svg>
