<svg xmlns="http://www.w3.org/2000/svg" width="112" height="57" viewBox="0 0 112 57" fill="none">
    <path d="M40.6483 33.624H47.6883V34.856H42.1363V38.744H46.9203V39.976H42.1363V45H40.6483V33.624ZM52.5678 45.16C51.8105 45.16 51.1385 44.9787 50.5518 44.616C49.9758 44.2533 49.5225 43.7413 49.1918 43.08C48.8718 42.4187 48.7118 41.656 48.7118 40.792V40.696C48.7118 39.8853 48.8665 39.1547 49.1758 38.504C49.4958 37.8427 49.9438 37.3253 50.5198 36.952C51.1065 36.5787 51.7838 36.392 52.5518 36.392C53.3091 36.392 53.9811 36.5733 54.5678 36.936C55.1545 37.2987 55.6078 37.8107 55.9278 38.472C56.2478 39.1227 56.4078 39.8853 56.4078 40.76V40.872C56.4078 41.7253 56.2425 42.4773 55.9118 43.128C55.5811 43.768 55.1225 44.2693 54.5358 44.632C53.9598 44.984 53.3038 45.16 52.5678 45.16ZM50.1678 40.872C50.1571 41.8107 50.3705 42.5627 50.8078 43.128C51.2558 43.6933 51.8425 43.976 52.5678 43.976C53.2931 43.976 53.8691 43.6987 54.2958 43.144C54.7331 42.5893 54.9571 41.816 54.9678 40.824V40.696C54.9785 39.768 54.7598 39.016 54.3118 38.44C53.8745 37.864 53.2878 37.576 52.5518 37.576C51.8478 37.576 51.2771 37.8533 50.8398 38.408C50.4025 38.9627 50.1785 39.7413 50.1678 40.744V40.872ZM58.3488 33H59.8048V45H58.3488V33ZM62.2394 33H63.6954V45H62.2394V33ZM69.4741 45.16C68.7167 45.16 68.0447 44.9787 67.4581 44.616C66.8821 44.2533 66.4287 43.7413 66.0981 43.08C65.7781 42.4187 65.6181 41.656 65.6181 40.792V40.696C65.6181 39.8853 65.7727 39.1547 66.0821 38.504C66.4021 37.8427 66.8501 37.3253 67.4261 36.952C68.0127 36.5787 68.6901 36.392 69.4581 36.392C70.2154 36.392 70.8874 36.5733 71.4741 36.936C72.0607 37.2987 72.5141 37.8107 72.8341 38.472C73.1541 39.1227 73.3141 39.8853 73.3141 40.76V40.872C73.3141 41.7253 73.1487 42.4773 72.8181 43.128C72.4874 43.768 72.0287 44.2693 71.4421 44.632C70.8661 44.984 70.2101 45.16 69.4741 45.16ZM67.0741 40.872C67.0634 41.8107 67.2767 42.5627 67.7141 43.128C68.1621 43.6933 68.7487 43.976 69.4741 43.976C70.1994 43.976 70.7754 43.6987 71.2021 43.144C71.6394 42.5893 71.8634 41.816 71.8741 40.824V40.696C71.8847 39.768 71.6661 39.016 71.2181 38.44C70.7807 37.864 70.1941 37.576 69.4581 37.576C68.7541 37.576 68.1834 37.8533 67.7461 38.408C67.3087 38.9627 67.0847 39.7413 67.0741 40.744V40.872ZM74.3751 36.552H75.8151L77.2711 42.12L77.4791 42.872L79.4471 36.552H80.6151L82.6151 43L82.8231 42.12L84.2471 36.552H85.6871L83.2231 45H82.0551L80.2311 39.288L80.0071 38.6L79.7991 39.288L78.0071 45H76.8231L74.3751 36.552ZM95.2547 45.16C93.996 45.16 92.9987 44.824 92.2627 44.152C91.5267 43.4693 91.1534 42.5413 91.1427 41.368V33.624H92.6307V41.336C92.6307 42.1573 92.8547 42.7973 93.3027 43.256C93.7614 43.704 94.412 43.928 95.2547 43.928C96.0974 43.928 96.7427 43.704 97.1907 43.256C97.6494 42.7973 97.8787 42.1573 97.8787 41.336V33.624H99.3827V41.352C99.3827 42.4507 99.0254 43.336 98.3107 44.008C97.596 44.68 96.5774 45.064 95.2547 45.16ZM104.638 45.16C103.944 45.16 103.331 45.032 102.798 44.776C102.275 44.52 101.87 44.184 101.582 43.768C101.304 43.3413 101.166 42.8827 101.166 42.392H102.622C102.643 42.8827 102.835 43.272 103.198 43.56C103.56 43.8373 104.04 43.976 104.638 43.976C105.182 43.976 105.619 43.8693 105.95 43.656C106.28 43.432 106.446 43.1333 106.446 42.76C106.446 42.3653 106.302 42.0613 106.014 41.848C105.726 41.6347 105.214 41.448 104.478 41.288C103.432 41.064 102.664 40.76 102.174 40.376C101.694 39.992 101.454 39.4907 101.454 38.872C101.454 38.4133 101.587 37.9973 101.854 37.624C102.12 37.24 102.494 36.9413 102.974 36.728C103.454 36.504 103.992 36.392 104.59 36.392C105.219 36.392 105.774 36.504 106.254 36.728C106.744 36.952 107.123 37.2667 107.39 37.672C107.667 38.0667 107.806 38.52 107.806 39.032H106.366C106.366 38.6373 106.195 38.296 105.854 38.008C105.512 37.72 105.091 37.576 104.59 37.576C104.056 37.576 103.64 37.688 103.342 37.912C103.054 38.136 102.91 38.44 102.91 38.824C102.91 39.1013 103.006 39.3253 103.198 39.496C103.4 39.6667 103.619 39.7893 103.854 39.864C104.099 39.9387 104.424 40.024 104.83 40.12C105.886 40.3547 106.659 40.6693 107.15 41.064C107.64 41.448 107.886 41.9813 107.886 42.664C107.886 43.1547 107.747 43.592 107.47 43.976C107.203 44.3493 106.819 44.6427 106.318 44.856C105.827 45.0587 105.267 45.16 104.638 45.16Z" fill="#F37335"/>
    <path fill-rule="evenodd" clip-rule="evenodd" d="M16.6719 38.619C14.9476 38.619 13.4616 38.0683 12.2951 36.9099C8.67764 33.325 11.0879 26.8766 16.5335 26.8766C21.9159 26.8766 24.6376 33.9428 19.9148 37.5053C19.1127 38.1089 17.7854 38.619 16.6719 38.619ZM7.33203 32.7478C7.33203 40.7326 17.3742 45.3844 23.4345 38.6007C24.7761 37.0989 25.5965 34.8065 25.5965 32.7478C25.5965 25.7508 17.704 20.9689 11.261 25.2752C9.05832 26.7466 7.33203 29.5917 7.33203 32.7478Z" fill="#F37335"/>
    <path fill-rule="evenodd" clip-rule="evenodd" d="M23.7969 23.0804V23.4238C23.7969 24.4806 24.7455 25.4276 25.8041 25.4276C26.5654 25.4276 26.9197 25.3423 27.4836 24.757C29.3503 22.8162 26.4759 19.8836 24.5053 21.7147C24.1959 22.0012 23.7969 22.5174 23.7969 23.0804Z" fill="#F37335"/>
    <path fill-rule="evenodd" clip-rule="evenodd" d="M10.1195 13.8254H25.3019C30.8675 13.8254 35.4214 18.3716 35.4214 23.9278V39.0823C35.4214 44.6385 30.8675 49.1847 25.3019 49.1847H10.1195C4.55389 49.1847 0 44.6385 0 39.0823V23.9278C0 18.3716 4.55389 13.8254 10.1195 13.8254ZM25.3019 16.9389H10.1195C8.19782 16.9389 6.44914 17.7253 5.17886 18.9935C3.90857 20.2616 3.11872 22.0093 3.11872 23.9278V39.0823C3.11872 41.0008 3.90857 42.7485 5.17886 44.0167C6.44914 45.2848 8.19782 46.0713 10.1195 46.0713H25.3019C27.2236 46.0713 28.9723 45.2848 30.2426 44.0167C31.5129 42.7485 32.3027 41.0008 32.3027 39.0823V23.9278C32.3027 22.0093 31.5129 20.2616 30.2426 18.9935C28.9723 17.7253 27.2236 16.9389 25.3019 16.9389Z" fill="#F37335"/>
    <path fill-rule="evenodd" clip-rule="evenodd" d="M34.6712 0C40.6969 0 45.5826 4.87539 45.5826 10.8929C45.5826 16.9084 40.6969 21.7858 34.6712 21.7858C33.1403 21.7858 31.6828 21.4708 30.3616 20.9018C30.3148 20.8815 30.2659 20.8164 30.2211 20.8408L25.8525 23.2287L26.7624 18.398C26.7767 18.331 26.6688 18.2964 26.624 18.2476C24.8468 16.3109 23.7598 13.7279 23.7598 10.8929C23.7598 4.87539 28.6455 0 34.6712 0Z" fill="white"/>
    <path fill-rule="evenodd" clip-rule="evenodd" d="M34.689 7.56001C37.4779 3.74343 42.5753 7.28971 40.1773 11.4741C38.3614 13.5775 36.7206 15.3415 34.8844 17.2295C34.7419 17.3392 34.5913 17.3392 34.4366 17.2112C32.7021 15.3537 30.9677 13.4983 29.2333 11.6408C26.6601 7.71649 31.7738 3.58084 34.689 7.56001Z" fill="#F37335"/>
</svg>