<svg width="26" height="26" viewBox="0 0 26 26" fill="none" xmlns="http://www.w3.org/2000/svg">
<rect width="26" height="26" rx="5" fill="black"/>
<path fill-rule="evenodd" clip-rule="evenodd" d="M13.0219 16.5399C13.0601 16.3252 13.2427 15.6175 13.4535 15.4647C13.5107 15.3437 13.5464 15.3231 13.6209 15.2325C13.6944 15.142 13.7214 15.0941 13.8296 15.0448C13.8427 15.0196 13.8296 15.036 13.8566 15.0014C13.8611 14.9958 13.8847 14.9685 13.8944 14.9608C13.9616 14.9063 13.9142 14.9325 13.9811 14.9206C14.0428 14.8157 14.2448 14.7056 14.3842 14.6587C14.4459 14.579 14.7658 14.493 14.8944 14.458C15.0341 14.4308 15.3984 14.3654 15.5499 14.3948C15.6372 14.4112 15.5918 14.4035 15.6199 14.4189C15.7239 14.386 15.9065 14.422 15.9939 14.4514C16.18 14.4755 16.4774 14.5465 16.579 14.6741C16.6643 14.6829 16.7065 14.7133 16.7821 14.7622L16.9142 14.8626C16.9152 14.8594 16.9204 14.8703 16.9239 14.8748C17.0081 14.9105 17.0556 14.9402 17.1086 15.0262C17.1561 15.036 17.127 15.0252 17.1693 15.0591L17.4674 15.4297C17.6837 15.5629 17.8934 16.2161 17.9291 16.5518L17.9412 17.071C17.9239 17.2696 17.8989 17.6262 17.7648 17.7451C17.7617 17.8476 17.7055 17.9609 17.6525 18.0242C17.6168 18.1189 17.5918 18.1682 17.5215 18.2182C17.4989 18.336 17.2157 18.6752 17.1 18.7014C17.0449 18.7909 17.0968 18.7406 16.9918 18.7962C16.9745 18.843 16.9669 18.8353 16.9097 18.877C16.8708 18.9053 16.8438 18.9217 16.7939 18.9532C16.7163 19.0035 16.6514 19.0525 16.5606 19.0612C16.4955 19.1301 16.396 19.1595 16.3 19.1944C16.1963 19.2305 16.1076 19.2577 15.9897 19.2773C15.9162 19.2979 15.9162 19.3035 15.8317 19.2836L15.6902 19.3273C15.5065 19.3469 14.9239 19.3371 14.8046 19.2207C14.6954 19.2193 14.4556 19.1409 14.3842 19.0668C14.2545 19.0221 14.0317 18.8888 13.9301 18.7874C13.8902 18.7472 13.9204 18.7853 13.8871 18.7329C13.8254 18.7189 13.8729 18.8095 13.833 18.6808C13.702 18.6175 13.4729 18.3504 13.4025 18.1811L13.3259 18.0853C13.1682 17.8105 13.0448 17.4245 13.0157 17.1004L13.0223 16.5399H13.0219ZM11.5193 16.6227C11.4958 16.9032 11.076 17.3392 10.9356 17.4811C10.7918 17.6273 10.3044 17.9927 10.0382 17.9916C9.9734 18.0483 9.87842 18.0658 9.71828 18.0962C9.59939 18.1189 9.49124 18.129 9.36161 18.1364L8.9519 18.1168C8.77685 18.0951 8.43716 18.0448 8.33664 17.936C8.09019 17.9259 7.607 17.5172 7.49123 17.3972C7.31064 17.2084 7.06419 16.8867 6.95708 16.5553C6.8881 16.407 6.82849 16.1822 6.81011 15.9762L6.82225 15.9633C6.69885 15.8039 6.83403 15.0853 6.91063 14.9098C6.9907 14.5521 7.28152 14.1549 7.47494 13.9629C7.61983 13.8192 8.07078 13.3982 8.36368 13.385C8.59384 13.1507 9.47287 13.1647 9.9162 13.2825C10.0004 13.3056 10.0341 13.3066 10.0881 13.3591C10.2178 13.3643 10.4729 13.478 10.5377 13.5696C10.633 13.6 10.6601 13.6273 10.7377 13.6839L10.8545 13.7888C10.8576 13.792 10.8653 13.8115 10.8673 13.807C10.8698 13.8028 10.876 13.8203 10.8805 13.8269C10.9443 13.842 10.9453 13.8475 11.007 13.9063C11.0244 13.9227 11.0458 13.9458 11.0576 13.9629C11.0871 14.0066 11.0774 13.985 11.0871 14.0297C11.1928 14.093 11.3096 14.2629 11.3509 14.372C11.3755 14.3885 11.3398 14.3416 11.3963 14.4178C11.4025 14.4276 11.4178 14.4538 11.4254 14.4668C11.4881 14.5769 11.5831 14.7549 11.581 14.8713C11.6309 14.9315 11.6438 14.9927 11.6642 15.0755C11.7734 15.5224 11.7561 16.4137 11.5193 16.6227ZM11.9117 12.7339C11.9346 12.6262 11.9779 12.5465 12.0219 12.4703C12.0514 12.422 12.0632 12.3982 12.0999 12.3577C12.1582 12.2944 12.1367 12.3164 12.2004 12.2804C12.2178 12.2454 12.1963 12.2552 12.2535 12.2105C12.3065 12.1692 12.2642 12.1919 12.3214 12.1801C12.3769 12.108 12.4223 12.0863 12.5031 12.0503C12.5994 12.0077 12.6535 11.9947 12.7561 11.9773C13.1162 11.8769 13.7561 12.1461 13.8015 12.3895C13.9194 12.4724 13.9658 12.6021 13.9994 12.7437C14.0566 12.8584 14.0687 13.1059 14.0296 13.2367C14.007 13.3947 13.9398 13.614 13.806 13.7122C13.7908 13.7601 13.8122 13.7266 13.7745 13.7689C13.7422 13.8049 13.7616 13.7832 13.7311 13.7972C13.6989 13.8573 13.6979 13.8661 13.6244 13.9217C13.5973 13.9434 13.5509 13.9727 13.5096 13.9979C13.4147 14.0559 13.3346 14.0843 13.2178 14.1091C13.0739 14.1615 12.8933 14.1594 12.7301 14.1224C12.5519 14.0895 12.2254 13.9556 12.1939 13.8028C12.0306 13.7678 11.9065 13.4049 11.8764 13.2675C11.8524 13.1038 11.8393 12.8542 11.9117 12.7343V12.7339ZM19.0934 11.0776C18.9617 11.4745 18.7606 11.7832 18.526 12.0175C18.3832 12.1615 17.926 12.5846 17.6372 12.5944C17.3832 12.8563 16.1117 12.8182 15.9117 12.6206C15.7897 12.6196 15.5214 12.4951 15.4622 12.4122C15.3658 12.3797 15.3419 12.3556 15.2622 12.2968C15.2275 12.2706 15.2254 12.2738 15.1863 12.2377L15.1194 12.1549C15.0632 12.1398 15.1259 12.1713 15.0525 12.1234L14.9433 12.0175C14.9138 11.9738 14.9225 11.9937 14.9128 11.951L14.7571 11.793C14.7117 11.7318 14.6816 11.6916 14.649 11.614C14.5755 11.5388 14.4112 11.2486 14.4199 11.1091C14.3689 11.0493 14.3561 10.9891 14.3356 10.9052C14.3204 10.8398 14.3051 10.7755 14.2934 10.7014C14.2674 10.5356 14.2577 10.3633 14.2674 10.1954C14.2816 9.97164 14.3367 9.48318 14.4816 9.3587C14.4954 9.09157 14.928 8.63562 15.0622 8.49611C15.2438 8.30765 15.6372 8.07198 15.9766 7.96289L16.5454 7.8496L17.0459 7.86359C17.2254 7.88561 17.5613 7.93561 17.6632 8.04366C17.823 8.05135 18.1572 8.28037 18.2643 8.36429C18.3516 8.43177 18.4424 8.51464 18.5086 8.58352C18.6047 8.68282 18.6761 8.74366 18.6903 8.82653C18.7378 8.85625 18.7128 8.8017 18.7551 8.90835C18.8501 8.9531 18.997 9.28038 19.0424 9.42654C19.1291 9.58143 19.1745 9.83318 19.1984 10.0489L19.2015 10.6412L19.0934 11.0776ZM12.9779 9.44507C12.9398 9.65975 12.8979 9.84402 12.8178 10.0405C12.779 10.1342 12.7464 10.2115 12.6979 10.301L12.5821 10.4842C12.5592 10.5115 12.5561 10.5094 12.5464 10.5171C12.4979 10.6227 12.4448 10.6675 12.38 10.7482C12.3065 10.8377 12.2784 10.8877 12.1703 10.9356C12.1582 10.9577 12.1679 10.9468 12.1433 10.9783C12.1422 10.9804 12.1107 11.0154 12.1055 11.0185C12.0382 11.0731 12.0871 11.0482 12.0188 11.0591C11.955 11.1692 11.7571 11.2706 11.6157 11.322C11.5485 11.3937 11.3398 11.4703 11.2209 11.4692C11.1173 11.5748 10.3928 11.6412 10.2663 11.5563C10.1637 11.5717 10.0718 11.551 10.0081 11.53C9.81568 11.5017 9.52591 11.4353 9.42088 11.3066C9.3259 11.2968 9.2136 11.2217 9.13561 11.1626L9.08708 11.1178C9.08465 11.1115 9.08049 11.1101 9.07737 11.1059C9.00354 11.0755 9.0285 11.0951 8.9616 11.037L8.90545 10.9741C8.90302 10.964 8.89678 10.9629 8.89228 10.9566C8.85138 10.9454 8.86871 10.9521 8.83197 10.9217C8.7259 10.8353 8.55605 10.6587 8.53352 10.5496C8.31723 10.4168 8.10302 9.76325 8.07182 9.42549L8.059 8.90835C8.0739 8.72408 8.09886 8.42967 8.20596 8.31079C8.207 8.18876 8.28603 8.03282 8.34739 7.95415C8.38517 7.86044 8.40805 7.81149 8.47945 7.76324C8.49886 7.6531 8.73976 7.36953 8.83301 7.30869C8.87495 7.28141 8.86004 7.28806 8.8999 7.27932C8.92798 7.22477 8.88465 7.24645 8.97339 7.21708C9.01013 7.13316 9.31724 6.92582 9.43925 6.91812C9.54532 6.80903 9.86629 6.72861 10.007 6.70344C10.1055 6.67721 10.0795 6.67616 10.1692 6.69679C10.2448 6.64575 10.3474 6.65099 10.4479 6.64889C10.5398 6.64679 10.6275 6.64575 10.7204 6.65204C10.8663 6.66288 11.1086 6.68176 11.1949 6.76008C11.3096 6.75903 11.553 6.8419 11.6157 6.91393C11.7301 6.95414 11.806 7.00099 11.8978 7.06323C11.9745 7.11463 12.0611 7.16568 12.1117 7.2475C12.1765 7.26183 12.128 7.17022 12.1679 7.30099C12.2933 7.36113 12.5377 7.63142 12.5973 7.79925C12.702 7.86708 12.7876 8.11778 12.8448 8.26918C12.9086 8.43946 12.9928 8.66744 12.9637 8.8615C13.0469 8.99122 12.9887 9.27583 12.9779 9.44507ZM12.1582 4.36216L11.6566 4.4286L10.5408 4.66846C10.4826 4.70657 10.1367 4.82126 10.0427 4.81881L9.89333 4.89853C9.53665 5.0272 9.12694 5.25937 8.92382 5.3314C8.83821 5.40343 8.53006 5.56252 8.4025 5.64119C8.30649 5.70133 8.22538 5.75133 8.13768 5.81147C8.05241 5.87021 7.97789 5.94644 7.88707 5.96182C7.82641 6.07092 7.72381 6.11217 7.62745 6.18106C7.58759 6.22127 7.54842 6.24854 7.4836 6.30309C7.45449 6.32721 7.43819 6.34225 7.40908 6.36637C7.32797 6.42861 7.39071 6.3926 7.33455 6.40693C7.30093 6.46253 7.33005 6.42092 7.29227 6.46253L6.9862 6.72302C6.97545 6.75134 6.99278 6.73176 6.95292 6.77966L6.84166 6.8877C6.7907 6.93036 6.8167 6.90938 6.78308 6.92267C6.74322 7.00204 6.76679 6.96078 6.70855 7.02827C6.6784 7.06323 6.66211 7.07862 6.63056 7.11358C6.56782 7.18316 6.55188 7.20834 6.4673 7.25834C6.43923 7.33911 6.31514 7.48421 6.24789 7.53561L6.01773 7.82547C5.99832 7.88666 5.74425 8.25625 5.69329 8.28806C5.66522 8.37967 5.71167 8.32932 5.62744 8.38282C5.61565 8.46674 5.61669 8.43946 5.56366 8.52898C5.53974 8.56919 5.51374 8.61394 5.49329 8.64996C5.44789 8.72723 5.38861 8.83422 5.35499 8.87898C5.32795 8.95415 5.18618 9.2573 5.11617 9.32409L5.08358 9.43633L4.85967 9.98493C4.83922 10.022 4.8413 10.0164 4.8198 10.0395C4.82084 10.073 4.55186 11.0272 4.53661 11.058L4.43401 11.6161L4.36573 12.1409C4.33661 12.7919 4.33211 13.2685 4.37439 13.9217L4.38098 14.1203L4.53557 14.9217C4.55152 14.9521 4.82084 15.9161 4.8198 15.9413C4.82535 15.9469 4.83055 15.9546 4.83402 15.9588L5.08358 16.5455L5.11617 16.6577C5.18099 16.7189 5.20144 16.7885 5.24268 16.8717C5.28567 16.9577 5.32241 17.0102 5.35499 17.1007C5.39485 17.1549 5.45135 17.2598 5.503 17.3479C5.55707 17.4409 5.61461 17.5039 5.62744 17.5979C5.71167 17.6514 5.66522 17.6 5.69225 17.6927C5.74841 17.7266 5.99936 18.0906 6.01461 18.1563L6.24789 18.4441C6.29122 18.478 6.32034 18.5249 6.37129 18.5804C6.39833 18.6088 6.41358 18.6217 6.43507 18.6535C6.47285 18.7091 6.45344 18.6798 6.4673 18.721C6.55708 18.7756 6.57649 18.8084 6.64373 18.8815C6.67285 18.914 6.69573 18.935 6.72138 18.9665C6.77025 19.0252 6.74738 18.9881 6.78308 19.057C6.81566 19.07 6.79486 19.0539 6.84166 19.093L6.9862 19.2588C7.06003 19.2927 7.28568 19.4944 7.33455 19.5738C7.39175 19.5881 7.32693 19.5511 7.40908 19.6144C7.43923 19.6371 7.45553 19.6535 7.4836 19.6777C7.54842 19.7322 7.58516 19.7584 7.62953 19.7986C7.72381 19.8696 7.82537 19.9098 7.88707 20.0179C7.97893 20.0354 8.06316 20.1172 8.15397 20.1791C8.23612 20.2347 8.31168 20.2819 8.40146 20.3406C8.53872 20.4301 8.83509 20.5588 8.9162 20.6504C9.08916 20.7039 9.30753 20.8378 9.48812 20.9154L10.0427 21.1619C10.1325 21.1595 10.4826 21.2721 10.5401 21.3123C10.9065 21.3745 11.2708 21.4868 11.6642 21.5522L12.1585 21.6175C12.7367 21.6612 13.2233 21.6515 13.807 21.6242L14.354 21.5511C14.7291 21.4724 15.101 21.3833 15.4708 21.3067C15.5162 21.2654 15.8785 21.1574 15.9575 21.1619L16.2448 21.0277C16.3454 20.9861 16.4341 20.9479 16.5305 20.9067C16.7163 20.828 16.8989 20.7168 17.0816 20.6493C17.1509 20.5805 17.5055 20.3972 17.631 20.3175C17.7856 20.2207 18.0123 20.0822 18.1433 19.9665L18.3693 19.7986C18.4178 19.757 18.4504 19.7333 18.5163 19.6777C18.5454 19.6535 18.5617 19.6381 18.5918 19.6144C18.6729 19.5511 18.6092 19.5881 18.6664 19.5738C18.6989 19.5193 18.6709 19.5598 18.7076 19.5182C18.7281 19.4965 18.7312 19.4955 18.753 19.4756C18.8632 19.3777 18.9055 19.3098 19.0137 19.2588C19.0372 19.1965 19.1551 19.0833 19.2168 19.0581C19.2567 18.9794 19.2341 19.0189 19.2924 18.9521C19.3229 18.9175 19.3378 18.9032 19.3703 18.8672C19.4331 18.7962 19.448 18.7735 19.5336 18.7221C19.552 18.6675 19.5346 18.6972 19.5769 18.6381L19.753 18.4483C19.7908 18.3689 19.753 18.4353 19.8113 18.3546L19.9842 18.1563C20.0005 18.0951 20.2567 17.7245 20.3066 17.6927C20.3357 17.6011 20.2892 17.6514 20.3724 17.5979C20.3853 17.5074 20.4556 17.4179 20.5076 17.3308C20.553 17.2542 20.6126 17.1465 20.6449 17.1018L20.8393 16.7056C20.8643 16.6699 20.8601 16.6797 20.8837 16.6567L20.9163 16.5434C20.9607 16.4147 21.1118 16.0004 21.1856 15.9273L21.4643 14.9238C21.4861 14.7514 21.5097 14.458 21.5887 14.3339L21.6352 13.8388C21.6633 13.2217 21.6633 12.757 21.6352 12.1409L21.5659 11.6185L21.4643 11.057C21.4438 11.0185 21.179 10.0839 21.1801 10.0395L20.9173 9.43178L20.8837 9.32409L20.7551 9.1101C20.7142 9.02513 20.6785 8.96954 20.6449 8.88003C20.6071 8.82793 20.5475 8.71989 20.4969 8.63247C20.4504 8.55065 20.3853 8.46779 20.3724 8.38282C20.2924 8.33037 20.3357 8.38177 20.3066 8.28806C20.2556 8.2552 20.0015 7.88666 19.9832 7.82442C19.9021 7.76254 19.8092 7.62372 19.752 7.53771C19.7173 7.50729 19.6882 7.47023 19.6393 7.41673C19.6178 7.39365 19.6071 7.38596 19.5887 7.35764C19.5464 7.29435 19.5714 7.33386 19.5593 7.29016C19.4664 7.23246 19.2688 7.02302 19.2168 6.92267L19.0133 6.72197C18.9118 6.67407 18.9086 6.65204 18.8244 6.56812C18.7877 6.53211 18.7714 6.52337 18.7378 6.4919L18.6664 6.40693C18.6133 6.39365 18.6674 6.42441 18.5918 6.36532C18.5617 6.3426 18.5454 6.32721 18.5163 6.30309C18.4514 6.24749 18.4147 6.22162 18.3693 6.18106C18.2774 6.11148 18.1745 6.07092 18.1142 5.96287C18.0209 5.94679 17.9367 5.86252 17.8459 5.80063C17.7582 5.74049 17.6816 5.69364 17.5811 5.6314C17.4157 5.5279 17.2438 5.41986 17.0601 5.3328C16.8719 5.2314 16.7076 5.14853 16.5117 5.06531C16.4081 5.02091 16.328 4.98699 16.2254 4.94433C16.1357 4.90727 16.0265 4.88454 15.9571 4.81916C15.8643 4.82126 15.5173 4.70657 15.4601 4.66951C15.2459 4.63139 15.0525 4.56811 14.8275 4.5202C14.7045 4.49293 14.2535 4.4265 14.1908 4.38279C14.0826 4.40657 13.8999 4.37825 13.805 4.35552C13.2209 4.3272 12.7356 4.3216 12.1585 4.36216H12.1582Z" fill="#E61557"/>
<path fill-rule="evenodd" clip-rule="evenodd" d="M8.39073 3.05245L7.81568 3.21923C7.81568 3.21923 7.3214 3.48322 7.25762 3.52658C7.15398 3.59756 7.08812 3.6521 6.99488 3.72728C6.90649 3.79931 6.85033 3.87134 6.77442 3.93567C6.72243 3.98043 6.72798 3.97169 6.68257 3.99686C6.65241 4.08078 6.43057 4.34127 6.33872 4.49197C6.28153 4.58568 6.24686 4.65666 6.1973 4.75806C6.16055 4.83428 6.11723 4.9661 6.0784 5.0196C6.05137 5.13323 6.0122 5.24442 5.97996 5.36435C5.96714 5.4168 5.95397 5.47205 5.94218 5.51575C5.93248 5.54967 5.92797 5.5682 5.91411 5.59967C5.89781 5.63813 5.89331 5.64128 5.87944 5.66086C5.89227 5.76226 5.67494 6.53779 5.62745 6.68919L5.5498 6.99898L5.67944 6.90422L5.85241 6.70248C5.89677 6.59863 6.0382 6.46891 6.12485 6.38499C6.1862 6.3252 6.15397 6.34793 6.22641 6.30981C6.24686 6.25527 6.22849 6.27695 6.28811 6.21925C6.34322 6.16471 6.32901 6.17869 6.38101 6.15911C6.4382 6.05981 6.6025 5.91156 6.70302 5.84093C6.75293 5.80596 6.68707 5.84198 6.76368 5.80492L6.81567 5.73813C6.81775 5.73603 6.86732 5.69128 6.87286 5.68708C6.94115 5.62939 6.92798 5.62939 7.00909 5.61191C7.059 5.51156 7.20909 5.4189 7.31065 5.3696L7.80701 5.01295C7.89679 4.95526 7.97651 4.90176 8.07391 4.84407C8.11828 4.81785 8.15814 4.79372 8.21014 4.76225C8.29783 4.70875 8.27946 4.71085 8.36265 4.70456C8.43925 4.60526 8.74844 4.46994 8.89125 4.4077C9.08051 4.32484 9.29021 4.2126 9.48571 4.16574C9.55399 4.11015 9.81777 4.0119 9.928 4.01644C10.077 3.89511 10.9658 3.70665 11.0999 3.69231C11.2143 3.65105 11.424 3.60735 11.553 3.62903C11.5582 3.62378 11.5637 3.61504 11.5668 3.61049C11.5703 3.6063 11.5776 3.59651 11.581 3.59196C11.5842 3.58672 11.5984 3.56819 11.6036 3.56154C11.5107 3.57133 10.6403 3.34126 10.5724 3.29755L10.0361 3.16014C9.99732 3.14266 9.9949 3.13951 9.97445 3.12413C9.87705 3.13951 9.59178 3.07203 9.4871 3.03042L8.92903 3L8.39073 3.05245Z" fill="white"/>
<path fill-rule="evenodd" clip-rule="evenodd" d="M18.8535 5.61185C18.9357 5.63143 19.1346 5.79717 19.2015 5.88214C19.2286 5.9171 19.2168 5.89857 19.2296 5.92584C19.3398 5.9727 19.4189 6.05347 19.4806 6.16046C19.553 6.18983 19.5766 6.22794 19.6414 6.29123C19.7041 6.35452 19.7443 6.37829 19.7714 6.45032C19.8275 6.48424 19.8046 6.46675 19.8546 6.51466C19.8761 6.53634 19.8837 6.54857 19.9066 6.57025C19.9908 6.65102 19.9658 6.59857 20.0102 6.70347C20.0438 6.71746 20.0189 6.69892 20.0643 6.74158C20.0837 6.76011 20.0934 6.7741 20.1149 6.79718C20.1766 6.86361 20.1832 6.87235 20.2286 6.93144L20.7246 7.5811C20.7776 7.65767 20.7908 7.65977 20.8057 7.73844C20.8816 7.78739 20.8653 7.7797 20.9107 7.86921C20.9703 7.94439 21.1464 8.20838 21.1603 8.30978C21.2393 8.37306 21.2653 8.45348 21.3138 8.54649C21.3638 8.64229 21.4144 8.72411 21.4525 8.82342L21.4781 8.87132C21.552 9.01537 21.6882 9.28566 21.7204 9.44405C21.779 9.51153 21.901 9.82552 21.8989 9.94335C21.927 9.98042 21.8944 9.92168 21.9336 9.99895C21.9485 10.0308 21.9454 10.022 21.9593 10.0591L22.0872 10.4811C22.1326 10.6535 22.1984 10.8867 22.2189 11.0731C22.2546 11.1626 22.2903 11.3371 22.2761 11.4601C22.3423 11.5476 22.3107 11.6773 22.3551 11.7972C22.4005 11.7025 22.4383 11.5074 22.4684 11.3958C22.4913 11.3087 22.5475 11.0556 22.5974 10.9969C22.5929 10.8878 22.6698 10.6217 22.7087 10.5203C22.7291 10.3948 22.8317 9.9465 22.8944 9.88007C22.8892 9.72412 22.9842 9.41783 22.9974 9.21153C23.0123 8.95523 22.9617 8.67831 22.9766 8.46362C22.9173 8.3839 22.9042 8.20628 22.8719 8.09824C22.8307 7.96082 22.7853 7.86047 22.7475 7.7318C22.6771 7.66187 22.4785 7.15592 22.1326 6.84403C22.0771 6.79403 22.047 6.77865 22.0418 6.7199C21.9464 6.66291 21.9877 6.70452 21.9346 6.62165C21.8469 6.60312 21.8123 6.54648 21.6816 6.45242C21.2837 6.17025 21.0709 6.16151 20.8816 6.04018L20.4168 5.92025C20.3897 5.9129 20.353 5.90172 20.3301 5.89297C20.2566 5.86151 20.3031 5.88318 20.2719 5.86046C20.154 5.87025 19.4015 5.65416 19.2449 5.60416L18.752 5.48633C18.805 5.55171 18.8081 5.52444 18.8535 5.61185Z" fill="white"/>
<path fill-rule="evenodd" clip-rule="evenodd" d="M20.0112 19.2784C19.9668 19.3907 19.9789 19.3407 19.8944 19.4246C19.8708 19.4483 19.8653 19.4616 19.8438 19.4823C19.7852 19.5368 19.8198 19.5043 19.7734 19.5326C19.7443 19.6099 19.6295 19.7158 19.5606 19.7725C19.5055 19.8193 19.5408 19.7998 19.4826 19.8214C19.4275 19.9151 19.3356 20.0144 19.2306 20.0581C19.1918 20.1344 19.0545 20.2326 18.9876 20.2903L18.2566 20.8389C18.2015 20.8672 18.2361 20.8554 18.182 20.8651C18.1301 20.9393 18.1398 20.9197 18.0555 20.9697C17.9647 21.0288 17.7963 21.154 17.6968 21.1683C17.6306 21.2599 17.5606 21.2697 17.4254 21.3428C17.2049 21.4637 16.729 21.7113 16.5162 21.7603C16.4611 21.8085 16.1172 21.9403 16.0188 21.9372C15.8988 22.0417 15.128 22.2281 14.8988 22.2641C14.7952 22.3012 14.633 22.334 14.513 22.3187C14.4524 22.369 14.4406 22.3536 14.3442 22.3721C14.407 22.3753 14.3442 22.3645 14.3595 22.3963L15.4274 22.6819C15.555 22.7015 15.6534 22.7319 15.7723 22.7638C15.8243 22.7777 15.8697 22.7875 15.9228 22.8029C16.0122 22.8267 16.007 22.8148 16.0631 22.8617L16.5193 22.9522L17.0729 22.9805L17.4642 22.9708C17.4763 22.961 18.1151 22.7798 18.1866 22.7624C18.1938 22.7515 18.6535 22.5138 18.7259 22.4648C18.8309 22.3938 18.8815 22.3536 18.9758 22.277C19.032 22.2312 19.1606 22.104 19.206 22.0819C19.2406 22.0295 19.1973 22.0721 19.2621 22.0176C19.2933 21.9903 19.2784 22.0057 19.3183 21.9851C19.3509 21.8945 19.5703 21.6414 19.6611 21.49C19.7443 21.3526 19.8514 21.0613 19.9238 20.9609C19.9509 20.8452 19.9918 20.7221 20.0188 20.6207C20.0483 20.5116 20.0611 20.3784 20.1249 20.3078C20.1193 20.1952 20.3249 19.4319 20.3724 19.2956C20.4015 19.1756 20.4254 19.0907 20.4555 18.9749C20.4611 18.9543 20.4933 18.8483 20.4978 18.8256C20.5172 18.7144 20.4923 18.7284 20.4795 18.7134C20.4535 18.7907 20.085 19.2497 20.0115 19.2781L20.0112 19.2784Z" fill="white"/>
<path fill-rule="evenodd" clip-rule="evenodd" d="M3.52567 14.5794C3.50418 14.6983 3.47472 14.9 3.40227 14.9829C3.40574 15.0927 3.32775 15.3762 3.29101 15.4518C3.27472 15.5693 3.23798 15.6783 3.20678 15.7962L3.14092 16.0297C3.12116 16.0745 3.12983 16.0581 3.1073 16.0853C3.12151 16.2228 3.01856 16.5563 3.0047 16.7416C2.98494 17.0056 3.03485 17.2696 3.0196 17.4965C3.04664 17.528 3.18633 18.0647 3.23798 18.1801C3.33746 18.4791 3.5593 18.7812 3.74405 19.0123C3.79257 19.0735 3.78841 19.0647 3.85323 19.1235C3.91389 19.178 3.92568 19.1693 3.93088 19.2347C3.97975 19.2654 3.98945 19.2675 4.02828 19.3014L4.08443 19.3654C4.0879 19.3612 4.09413 19.3777 4.0976 19.384C4.19258 19.4014 4.16346 19.4189 4.31805 19.5291C4.69414 19.7941 4.98392 19.8497 5.11598 19.9403L5.72777 20.1203C5.838 20.1105 6.60993 20.3308 6.75793 20.3731L7.02518 20.442C7.03176 20.4179 7.038 20.4354 7.01443 20.3798C6.94719 20.3612 6.79156 20.2434 6.76452 20.1749L6.64147 20.0875C6.54199 20.0025 6.44771 19.9392 6.38185 19.8203C6.32777 19.7997 6.3451 19.8151 6.28895 19.7605C6.22725 19.7014 6.24874 19.7287 6.22725 19.671C6.15065 19.6319 6.17318 19.6469 6.11148 19.5815C6.07578 19.5445 6.05741 19.5203 6.02067 19.4812C5.93748 19.3931 5.90073 19.3931 5.85325 19.2784C5.80229 19.2588 5.69103 19.1431 5.67924 19.0756L5.52257 18.9175C5.46503 18.8455 5.42829 18.8147 5.39813 18.7266C5.31147 18.6875 5.09414 18.334 5.01754 18.2217C4.94717 18.1179 4.7191 17.7888 4.70176 17.6752C4.64249 17.6273 4.65636 17.6416 4.61095 17.5619C4.58287 17.5105 4.57317 17.4867 4.54821 17.4322L4.38287 17.1028L4.13954 16.5511C4.06086 16.406 3.80124 15.6958 3.80574 15.5269C3.72879 15.443 3.65323 15.022 3.63694 14.8801L3.56345 14.5234L3.52567 14.5794Z" fill="white"/>
</svg>
