<svg width="26" height="26" viewBox="0 0 26 26" fill="none" xmlns="http://www.w3.org/2000/svg">
<rect width="26" height="26" fill="#263238"/>
<path fill-rule="evenodd" clip-rule="evenodd" d="M13.0284 16.1978C13.0627 16.0044 13.2273 15.3668 13.4171 15.2292C13.4687 15.1202 13.5008 15.1016 13.568 15.02C13.6342 14.9384 13.6585 14.8953 13.7559 14.8509C13.7678 14.8282 13.7559 14.843 13.7803 14.8118C13.7844 14.8068 13.8056 14.7822 13.8143 14.7753C13.8749 14.7261 13.8321 14.7498 13.8924 14.7391C13.948 14.6446 14.13 14.5453 14.2556 14.5031C14.3112 14.4313 14.5994 14.3538 14.7152 14.3223C14.8411 14.2978 15.1693 14.2388 15.3057 14.2653C15.3844 14.2801 15.3435 14.2732 15.3688 14.287C15.4625 14.2574 15.627 14.2899 15.7057 14.3163C15.8734 14.3381 16.1413 14.402 16.2328 14.517C16.3096 14.5249 16.3477 14.5523 16.4158 14.5964L16.5348 14.6868C16.5357 14.6839 16.5404 14.6937 16.5435 14.6978C16.6194 14.7299 16.6622 14.7567 16.71 14.8342C16.7527 14.843 16.7265 14.8332 16.7646 14.8638L17.0332 15.1977C17.228 15.3177 17.4169 15.9061 17.4491 16.2085L17.46 16.6763C17.4444 16.8552 17.4219 17.1765 17.3011 17.2836C17.2983 17.3759 17.2477 17.4779 17.1999 17.5349C17.1677 17.6203 17.1453 17.6647 17.0819 17.7098C17.0616 17.8159 16.8065 18.1215 16.7022 18.1451C16.6525 18.2257 16.6993 18.1804 16.6047 18.2304C16.5891 18.2727 16.5822 18.2657 16.5307 18.3032C16.4958 18.3287 16.4714 18.3435 16.4264 18.3719C16.3565 18.4172 16.2981 18.4613 16.2163 18.4692C16.1576 18.5313 16.068 18.5577 15.9815 18.5892C15.8881 18.6217 15.8081 18.6462 15.702 18.6639C15.6358 18.6825 15.6358 18.6875 15.5596 18.6695L15.4322 18.7089C15.2667 18.7266 14.7418 18.7177 14.6343 18.6128C14.536 18.6116 14.3199 18.541 14.2556 18.4743C14.1388 18.4339 13.938 18.3139 13.8465 18.2226C13.8106 18.1863 13.8378 18.2207 13.8078 18.1734C13.7522 18.1608 13.795 18.2424 13.7591 18.1265C13.641 18.0695 13.4346 17.8288 13.3712 17.6764L13.3022 17.5901C13.1601 17.3425 13.049 16.9947 13.0228 16.7027L13.0287 16.1978H13.0284ZM11.6747 16.2724C11.6535 16.5251 11.2753 16.9179 11.1489 17.0458C11.0193 17.1774 10.5802 17.5066 10.3404 17.5056C10.282 17.5567 10.1964 17.5724 10.0522 17.5998C9.94508 17.6203 9.84765 17.6294 9.73086 17.6361L9.36177 17.6184C9.20407 17.5989 8.89805 17.5535 8.8075 17.4556C8.58548 17.4464 8.15018 17.0782 8.04589 16.9702C7.8832 16.8001 7.66118 16.5103 7.56469 16.2117C7.50255 16.0781 7.44884 15.8756 7.43229 15.69L7.44322 15.6784C7.33205 15.5347 7.45383 14.8874 7.52284 14.7293C7.59498 14.4071 7.85697 14.0492 8.03121 13.8763C8.16174 13.7468 8.56799 13.3676 8.83185 13.3556C9.0392 13.1446 9.8311 13.1572 10.2305 13.2633C10.3064 13.2841 10.3367 13.285 10.3854 13.3323C10.5022 13.337 10.732 13.4394 10.7904 13.5219C10.8762 13.5493 10.9006 13.5739 10.9706 13.6249L11.0758 13.7194C11.0786 13.7223 11.0855 13.7399 11.0873 13.7358C11.0895 13.732 11.0951 13.7478 11.0992 13.7538C11.1567 13.7673 11.1576 13.7723 11.2132 13.8253C11.2288 13.8401 11.2482 13.8609 11.2588 13.8763C11.2853 13.9157 11.2766 13.8961 11.2853 13.9365C11.3806 13.9935 11.4858 14.1466 11.5229 14.2448C11.5451 14.2596 11.513 14.2174 11.5639 14.2861C11.5695 14.2949 11.5832 14.3185 11.5901 14.3302C11.6466 14.4294 11.7322 14.5898 11.7303 14.6946C11.7753 14.7488 11.7868 14.8039 11.8052 14.8786C11.9036 15.2812 11.888 16.0841 11.6747 16.2724ZM12.0282 12.7691C12.0488 12.6721 12.0878 12.6002 12.1275 12.5316C12.154 12.4881 12.1646 12.4667 12.1978 12.4302C12.2502 12.3731 12.2308 12.393 12.2883 12.3605C12.3039 12.329 12.2846 12.3379 12.3361 12.2975C12.3839 12.2604 12.3458 12.2808 12.3973 12.2701C12.4472 12.2052 12.4882 12.1857 12.5609 12.1533C12.6477 12.1148 12.6964 12.1032 12.7889 12.0874C13.1133 11.997 13.6897 12.2396 13.7307 12.4588C13.8368 12.5335 13.8787 12.6503 13.909 12.7779C13.9605 12.8812 13.9714 13.1042 13.9361 13.222C13.9158 13.3644 13.8552 13.5619 13.7347 13.6504C13.721 13.6936 13.7403 13.6634 13.7063 13.7015C13.6773 13.7339 13.6947 13.7144 13.6673 13.727C13.6382 13.7812 13.6373 13.789 13.5711 13.8391C13.5467 13.8586 13.5049 13.8851 13.4677 13.9078C13.3822 13.9601 13.31 13.9856 13.2048 14.008C13.0752 14.0552 12.9125 14.0533 12.7654 14.0199C12.6049 13.9903 12.3108 13.8697 12.2824 13.732C12.1353 13.7005 12.0235 13.3736 11.9963 13.2498C11.9748 13.1023 11.9629 12.8774 12.0282 12.7694V12.7691ZM18.498 11.277C18.3793 11.6345 18.1982 11.9126 17.9868 12.1237C17.8582 12.2534 17.4463 12.6346 17.1862 12.6434C16.9573 12.8793 15.8119 12.845 15.6317 12.667C15.5218 12.6661 15.2801 12.5539 15.2267 12.4793C15.1399 12.45 15.1184 12.4283 15.0465 12.3753C15.0153 12.3517 15.0134 12.3546 14.9781 12.3221L14.9179 12.2475C14.8673 12.2339 14.9238 12.2623 14.8576 12.2191L14.7593 12.1237C14.7327 12.0843 14.7405 12.1022 14.7318 12.0638L14.5916 11.9214C14.5507 11.8663 14.5235 11.8301 14.4941 11.7602C14.4279 11.6924 14.2799 11.431 14.2877 11.3053C14.2418 11.2514 14.2303 11.1973 14.2119 11.1217C14.1981 11.0628 14.1844 11.0048 14.1738 10.938C14.1503 10.7887 14.1416 10.6334 14.1503 10.4822C14.1631 10.2806 14.2128 9.84059 14.3433 9.72845C14.3558 9.4878 14.7455 9.07704 14.8664 8.95136C15.03 8.78158 15.3844 8.56928 15.6901 8.471L16.2025 8.36894L16.6534 8.38154C16.8152 8.40138 17.1178 8.44643 17.2096 8.54376C17.3535 8.55069 17.6546 8.75701 17.7511 8.83261C17.8297 8.8934 17.9116 8.96806 17.9712 9.03011C18.0577 9.11957 18.122 9.17438 18.1348 9.24903C18.1776 9.27581 18.1551 9.22667 18.1932 9.32274C18.2788 9.36306 18.4112 9.65789 18.4521 9.78956C18.5302 9.9291 18.5711 10.1559 18.5926 10.3502L18.5954 10.8838L18.498 11.277ZM12.9887 9.80626C12.9544 9.99966 12.9166 10.1657 12.8444 10.3427C12.8095 10.4271 12.7801 10.4967 12.7364 10.5774L12.6321 10.7424C12.6115 10.767 12.6087 10.7651 12.5999 10.772C12.5562 10.8672 12.5085 10.9075 12.4501 10.9802C12.3839 11.0609 12.3586 11.1059 12.2611 11.1491C12.2502 11.1689 12.259 11.1592 12.2368 11.1875C12.2358 11.1894 12.2074 11.2209 12.2027 11.2237C12.1422 11.2729 12.1862 11.2505 12.1247 11.2603C12.0672 11.3595 11.8889 11.4508 11.7615 11.4971C11.7009 11.5617 11.513 11.6307 11.4058 11.6298C11.3125 11.7249 10.6598 11.7847 10.5459 11.7082C10.4534 11.722 10.3707 11.7035 10.3132 11.6846C10.1399 11.659 9.87888 11.5992 9.78426 11.4833C9.6987 11.4745 9.59753 11.4067 9.52727 11.3535L9.48355 11.3132C9.48136 11.3075 9.47762 11.3063 9.47481 11.3025C9.40829 11.2751 9.43078 11.2927 9.37051 11.2404L9.31992 11.1837C9.31774 11.1746 9.31212 11.1736 9.30806 11.168C9.27121 11.1579 9.28682 11.1639 9.25372 11.1365C9.15817 11.0587 9.00516 10.8996 8.98486 10.8013C8.79001 10.6816 8.59703 10.0929 8.56893 9.78862L8.55737 9.32274C8.5708 9.15674 8.59329 8.89151 8.68977 8.78442C8.69071 8.67448 8.76191 8.534 8.81718 8.46312C8.85122 8.3787 8.87182 8.3346 8.93615 8.29114C8.95364 8.19191 9.17066 7.93645 9.25466 7.88164C9.29244 7.85707 9.27902 7.86306 9.31493 7.85518C9.34022 7.80605 9.30119 7.82557 9.38113 7.79912C9.41423 7.72352 9.69089 7.53673 9.80081 7.5298C9.89636 7.43152 10.1855 7.35907 10.3123 7.33639C10.401 7.31277 10.3776 7.31182 10.4584 7.3304C10.5265 7.28442 10.6189 7.28914 10.7095 7.28725C10.7922 7.28536 10.8713 7.28442 10.9549 7.29009C11.0864 7.29985 11.3047 7.31686 11.3824 7.38742C11.4858 7.38647 11.705 7.46113 11.7615 7.52602C11.8646 7.56224 11.9329 7.60445 12.0157 7.66052C12.0847 7.70682 12.1628 7.75281 12.2084 7.82652C12.2668 7.83943 12.223 7.75691 12.259 7.87471C12.372 7.92889 12.5921 8.17238 12.6458 8.32358C12.7402 8.38469 12.8173 8.61054 12.8688 8.74693C12.9263 8.90033 13.0021 9.10571 12.9759 9.28053C13.0509 9.39739 12.9984 9.6538 12.9887 9.80626ZM12.2502 5.22719L11.7984 5.28704L10.7932 5.50313C10.7407 5.53746 10.4291 5.64078 10.3445 5.63857L10.2099 5.71039C9.88856 5.82631 9.51946 6.03547 9.33647 6.10035C9.25934 6.16524 8.98174 6.30857 8.86683 6.37944C8.78033 6.43362 8.70726 6.47866 8.62826 6.53284C8.55144 6.58576 8.4843 6.65443 8.40249 6.66829C8.34785 6.76657 8.25542 6.80374 8.16861 6.86579C8.1327 6.90201 8.09741 6.92658 8.03902 6.97572C8.01279 6.99746 7.99811 7.011 7.97188 7.03274C7.89881 7.0888 7.95533 7.05636 7.90474 7.06927C7.87445 7.11936 7.90068 7.08187 7.86665 7.11936L7.59092 7.35403C7.58124 7.37954 7.59685 7.3619 7.56094 7.40506L7.4607 7.50239C7.4148 7.54082 7.43822 7.52192 7.40793 7.53389C7.37202 7.60539 7.39325 7.56822 7.34079 7.62902C7.31363 7.66052 7.29895 7.67438 7.27053 7.70588C7.21401 7.76856 7.19965 7.79124 7.12346 7.83628C7.09816 7.90905 6.98637 8.03977 6.92579 8.08607L6.71845 8.3472C6.70096 8.40233 6.47207 8.73528 6.42617 8.76394C6.40088 8.84647 6.44272 8.80111 6.36684 8.8493C6.35622 8.9249 6.35716 8.90033 6.30939 8.98097C6.28784 9.0172 6.26442 9.05752 6.246 9.08996C6.20509 9.15957 6.15169 9.25596 6.1214 9.29628C6.09705 9.364 5.96933 9.6371 5.90625 9.69727L5.8769 9.79838L5.67518 10.2926C5.65675 10.326 5.65863 10.321 5.63927 10.3417C5.6402 10.372 5.39789 11.2316 5.38415 11.2593L5.29172 11.7621L5.2302 12.2349C5.20397 12.8214 5.19991 13.2507 5.23801 13.8391L5.24394 14.018L5.38321 14.74C5.39757 14.7674 5.6402 15.6358 5.63927 15.6585C5.64426 15.6636 5.64895 15.6705 5.65207 15.6743L5.8769 16.2028L5.90625 16.3039C5.96465 16.3591 5.98307 16.4218 6.02023 16.4967C6.05895 16.5742 6.09205 16.6215 6.1214 16.703C6.15731 16.7519 6.20821 16.8464 6.25474 16.9257C6.30345 17.0095 6.35529 17.0662 6.36684 17.151C6.44272 17.1992 6.40088 17.1529 6.42524 17.2363C6.47582 17.2669 6.7019 17.5948 6.71564 17.654L6.92579 17.9132C6.96483 17.9438 6.99106 17.986 7.03696 18.0361C7.06132 18.0616 7.07506 18.0733 7.09442 18.1019C7.12845 18.152 7.11097 18.1256 7.12346 18.1627C7.20433 18.2119 7.22182 18.2415 7.2824 18.3073C7.30863 18.3366 7.32924 18.3555 7.35235 18.3838C7.39638 18.4368 7.37577 18.4034 7.40793 18.4654C7.43728 18.4771 7.41855 18.4626 7.4607 18.4979L7.59092 18.6472C7.65743 18.6777 7.86071 18.8595 7.90474 18.931C7.95627 18.9439 7.89787 18.9105 7.97188 18.9675C7.99905 18.988 8.01372 19.0028 8.03902 19.0245C8.09741 19.0737 8.13051 19.0973 8.17048 19.1335C8.25542 19.1975 8.34691 19.2337 8.40249 19.331C8.48524 19.3468 8.56112 19.4205 8.64294 19.4762C8.71694 19.5263 8.78502 19.5689 8.86589 19.6218C8.98955 19.7024 9.25653 19.8183 9.3296 19.9009C9.48542 19.9491 9.68215 20.0697 9.84484 20.1396L10.3445 20.3617C10.4253 20.3595 10.7407 20.4609 10.7926 20.4971C11.1226 20.5532 11.4508 20.6543 11.8052 20.7132L12.2505 20.7721C12.7714 20.8115 13.2098 20.8027 13.7357 20.7781L14.2284 20.7123C14.5663 20.6414 14.9013 20.5611 15.2345 20.4921C15.2754 20.4549 15.6017 20.3576 15.6729 20.3617L15.9318 20.2407C16.0224 20.2033 16.1023 20.1689 16.1891 20.1317C16.3565 20.0609 16.521 19.9607 16.6856 19.8999C16.7481 19.8379 17.0675 19.6728 17.1805 19.601C17.3198 19.5137 17.524 19.389 17.6421 19.2847L17.8457 19.1335C17.8894 19.096 17.9187 19.0746 17.9781 19.0245C18.0043 19.0028 18.019 18.989 18.0461 18.9675C18.1192 18.9105 18.0618 18.9439 18.1133 18.931C18.1426 18.8819 18.1173 18.9184 18.1504 18.8809C18.1689 18.8614 18.1717 18.8604 18.1913 18.8425C18.2906 18.7543 18.3287 18.6932 18.4262 18.6472C18.4474 18.5911 18.5536 18.4891 18.6092 18.4664C18.6451 18.3955 18.6248 18.4311 18.6772 18.3709C18.7047 18.3397 18.7181 18.3268 18.7475 18.2944C18.804 18.2304 18.8174 18.21 18.8946 18.1637C18.9111 18.1145 18.8955 18.1413 18.9336 18.0881L19.0922 17.917C19.1263 17.8455 19.0922 17.9054 19.1447 17.8326L19.3005 17.654C19.3152 17.5989 19.5459 17.265 19.5909 17.2363C19.6171 17.1538 19.5753 17.1992 19.6502 17.151C19.6618 17.0694 19.7252 16.9887 19.772 16.9103C19.8129 16.8413 19.8666 16.7443 19.8957 16.704L20.0709 16.3471C20.0933 16.315 20.0896 16.3238 20.1108 16.303L20.1402 16.2009C20.1802 16.085 20.3163 15.7118 20.3828 15.6459L20.6339 14.7419C20.6535 14.5866 20.6748 14.3223 20.746 14.2105L20.7878 13.7645C20.8131 13.2085 20.8131 12.7899 20.7878 12.2349L20.7254 11.7643L20.6339 11.2584C20.6155 11.2237 20.3769 10.3817 20.3778 10.3417L20.1411 9.79429L20.1108 9.69727L19.995 9.50449C19.9581 9.42795 19.926 9.37786 19.8957 9.29723C19.8616 9.25029 19.8079 9.15296 19.7623 9.07421C19.7205 9.0005 19.6618 8.92585 19.6502 8.8493C19.5781 8.80206 19.6171 8.84836 19.5909 8.76394C19.545 8.73433 19.3161 8.40233 19.2996 8.34626C19.2265 8.29051 19.1428 8.16545 19.0913 8.08796C19.0601 8.06056 19.0338 8.02717 18.9898 7.97898C18.9704 7.95819 18.9608 7.95126 18.9442 7.92574C18.9061 7.86873 18.9286 7.90432 18.9177 7.86495C18.834 7.81297 18.656 7.62429 18.6092 7.53389L18.4259 7.35308C18.3344 7.30993 18.3316 7.29009 18.2557 7.21449C18.2226 7.18204 18.2079 7.17417 18.1776 7.14582L18.1133 7.06927C18.0655 7.05731 18.1142 7.08502 18.0461 7.03179C18.019 7.01132 18.0043 6.99746 17.9781 6.97572C17.9197 6.92564 17.8866 6.90233 17.8457 6.86579C17.7629 6.80311 17.6702 6.76657 17.6158 6.66923C17.5318 6.65474 17.456 6.57883 17.3742 6.52308C17.2951 6.4689 17.2261 6.42669 17.1356 6.37062C16.9866 6.27738 16.8317 6.18005 16.6662 6.10161C16.4967 6.01027 16.3487 5.93561 16.1722 5.86064C16.0789 5.82064 16.0067 5.79009 15.9143 5.75166C15.8334 5.71827 15.7351 5.69779 15.6726 5.63889C15.5889 5.64078 15.2764 5.53746 15.2248 5.50407C15.0319 5.46974 14.8576 5.41272 14.655 5.36957C14.5441 5.345 14.1378 5.28515 14.0813 5.24578C13.9839 5.2672 13.8193 5.24168 13.7338 5.22121C13.2076 5.19569 12.7704 5.19065 12.2505 5.22719H12.2502Z" fill="white"/>
<path fill-rule="evenodd" clip-rule="evenodd" d="M8.85619 4.04725L8.33815 4.1975C8.33815 4.1975 7.89286 4.43532 7.8354 4.47438C7.74203 4.53832 7.6827 4.58746 7.5987 4.65519C7.51908 4.72008 7.46849 4.78496 7.4001 4.84292C7.35326 4.88324 7.35826 4.87537 7.31735 4.89805C7.29019 4.97365 7.09034 5.20832 7.00759 5.34408C6.95606 5.4285 6.92484 5.49244 6.88018 5.58379C6.84708 5.65246 6.80805 5.77121 6.77308 5.8194C6.74872 5.92178 6.71344 6.02194 6.68439 6.12999C6.67284 6.17724 6.66097 6.22701 6.65036 6.26638C6.64161 6.29693 6.63756 6.31363 6.62506 6.34198C6.61039 6.37663 6.60633 6.37946 6.59384 6.3971C6.60539 6.48845 6.4096 7.18711 6.36682 7.3235L6.29688 7.60258L6.41366 7.51722L6.56948 7.33547C6.60945 7.24192 6.73686 7.12505 6.81492 7.04945C6.87019 6.99559 6.84115 7.01606 6.90641 6.98173C6.92484 6.93259 6.90829 6.95212 6.962 6.90015C7.01165 6.85101 6.99884 6.86361 7.04568 6.84597C7.09721 6.75651 7.24522 6.62295 7.33578 6.55932C7.38074 6.52782 7.32141 6.56027 7.39042 6.52688L7.43726 6.46672C7.43914 6.46483 7.48379 6.42451 7.48879 6.42073C7.5503 6.36875 7.53844 6.36875 7.61151 6.353C7.65647 6.2626 7.79168 6.17913 7.88318 6.13471L8.33034 5.81342C8.41122 5.76144 8.48304 5.71325 8.57078 5.66128C8.61075 5.63765 8.64666 5.61592 8.6935 5.58757C8.7725 5.53937 8.75595 5.54126 8.8309 5.53559C8.89991 5.44614 9.17845 5.32423 9.3071 5.26816C9.4776 5.19351 9.66652 5.0924 9.84263 5.05019C9.90415 5.00011 10.1418 4.91159 10.2411 4.91569C10.3754 4.80638 11.176 4.6366 11.2968 4.62369C11.3999 4.58652 11.5888 4.54714 11.705 4.56667C11.7097 4.56195 11.7147 4.55407 11.7175 4.54998C11.7206 4.5462 11.7271 4.53738 11.7303 4.53328C11.7331 4.52856 11.7459 4.51186 11.7506 4.50588C11.6669 4.5147 10.8828 4.30743 10.8216 4.26806L10.3385 4.14427C10.3035 4.12852 10.3014 4.12568 10.2829 4.11182C10.1952 4.12568 9.93819 4.06489 9.84388 4.0274L9.34114 4L8.85619 4.04725Z" fill="white"/>
<path fill-rule="evenodd" clip-rule="evenodd" d="M18.2819 6.35307C18.3559 6.37071 18.5352 6.52002 18.5954 6.59656C18.6198 6.62806 18.6092 6.61137 18.6207 6.63594C18.72 6.67815 18.7912 6.75091 18.8468 6.8473C18.9121 6.87376 18.9333 6.90809 18.9917 6.96511C19.0482 7.02212 19.0844 7.04354 19.1088 7.10843C19.1594 7.13898 19.1388 7.12323 19.1837 7.16639C19.2031 7.18592 19.21 7.19694 19.2306 7.21647C19.3065 7.28923 19.284 7.24199 19.3239 7.33648C19.3542 7.34908 19.3318 7.33239 19.3727 7.37082C19.3901 7.38751 19.3989 7.40011 19.4183 7.4209C19.4738 7.48075 19.4798 7.48863 19.5207 7.54186L19.9675 8.12712C20.0153 8.1961 20.0272 8.19799 20.0406 8.26886C20.109 8.31296 20.0943 8.30603 20.1352 8.38667C20.1889 8.4544 20.3476 8.69222 20.36 8.78356C20.4312 8.84058 20.4547 8.91303 20.4984 8.99681C20.5433 9.08312 20.5889 9.15683 20.6233 9.24629L20.6464 9.28944C20.7129 9.41922 20.8356 9.66271 20.8647 9.8054C20.9174 9.8662 21.0273 10.1491 21.0255 10.2552C21.0508 10.2886 21.0214 10.2357 21.0567 10.3053C21.0701 10.334 21.0673 10.3261 21.0798 10.3595L21.195 10.7397C21.2359 10.895 21.2953 11.1051 21.3137 11.273C21.3459 11.3536 21.378 11.5108 21.3652 11.6217C21.4249 11.7004 21.3964 11.8173 21.4364 11.9253C21.4773 11.8399 21.5114 11.6642 21.5385 11.5637C21.5591 11.4853 21.6097 11.2572 21.6547 11.2043C21.6506 11.106 21.72 10.8663 21.7549 10.775C21.7733 10.6619 21.8658 10.258 21.9223 10.1982C21.9176 10.0577 22.0032 9.78178 22.015 9.59593C22.0285 9.36504 21.9829 9.11557 21.9963 8.92216C21.9429 8.85034 21.931 8.69033 21.902 8.59299C21.8648 8.4692 21.8239 8.3788 21.7899 8.26288C21.7265 8.19988 21.5476 7.74409 21.2359 7.46311C21.186 7.41807 21.1588 7.40421 21.1541 7.35129C21.0683 7.29994 21.1054 7.33743 21.0576 7.26277C20.9786 7.24608 20.9474 7.19505 20.8297 7.11032C20.4712 6.85612 20.2795 6.84824 20.109 6.73894L19.6902 6.6309C19.6659 6.62428 19.6328 6.6142 19.6122 6.60633C19.546 6.57798 19.5878 6.59751 19.5597 6.57703C19.4535 6.58585 18.7756 6.39119 18.6345 6.34614L18.1904 6.23999C18.2382 6.29889 18.241 6.27432 18.2819 6.35307Z" fill="white"/>
<path fill-rule="evenodd" clip-rule="evenodd" d="M19.3249 18.6648C19.285 18.7659 19.2959 18.7209 19.2197 18.7965C19.1985 18.8179 19.1935 18.8298 19.1741 18.8484C19.1213 18.8976 19.1526 18.8683 19.1107 18.8938C19.0845 18.9634 18.9811 19.0588 18.919 19.1099C18.8693 19.1521 18.9012 19.1344 18.8487 19.154C18.7991 19.2384 18.7163 19.3279 18.6217 19.3672C18.5867 19.4359 18.4631 19.5244 18.4028 19.5764L17.7443 20.0706C17.6946 20.0961 17.7258 20.0854 17.6771 20.0942C17.6303 20.161 17.639 20.1434 17.5631 20.1884C17.4813 20.2416 17.3296 20.3544 17.2399 20.3673C17.1803 20.4499 17.1172 20.4587 16.9954 20.5245C16.7968 20.6335 16.3681 20.8565 16.1764 20.9006C16.1267 20.9441 15.817 21.0628 15.7283 21.06C15.6202 21.1542 14.9258 21.3221 14.7193 21.3545C14.626 21.3879 14.4798 21.4175 14.3718 21.4037C14.3172 21.449 14.3065 21.4352 14.2197 21.4519C14.2762 21.4547 14.2197 21.4449 14.2335 21.4736L15.1956 21.7309C15.3105 21.7486 15.3991 21.776 15.5063 21.8046C15.5531 21.8172 15.594 21.8261 15.6418 21.8399C15.7223 21.8613 15.7177 21.8506 15.7682 21.8928L16.1792 21.9744L16.6779 21.9999L17.0304 21.9911C17.0413 21.9823 17.6168 21.8191 17.6812 21.8034C17.6877 21.7936 18.1018 21.5794 18.1671 21.5353C18.2617 21.4714 18.3073 21.4352 18.3922 21.3662C18.4428 21.3249 18.5586 21.2103 18.5995 21.1904C18.6308 21.1432 18.5917 21.1816 18.6501 21.1325C18.6782 21.1079 18.6648 21.1217 18.7007 21.1032C18.7301 21.0216 18.9277 20.7935 19.0095 20.6571C19.0845 20.5333 19.181 20.2709 19.2462 20.1805C19.2706 20.0763 19.3074 19.9654 19.3318 19.8741C19.3583 19.7758 19.3699 19.6558 19.4274 19.5921C19.4224 19.4907 19.6075 18.8031 19.6503 18.6802C19.6765 18.5722 19.6981 18.4956 19.7253 18.3914C19.7303 18.3728 19.7593 18.2773 19.7634 18.2569C19.7808 18.1567 19.7584 18.1693 19.7468 18.1558C19.7234 18.2254 19.3914 18.639 19.3252 18.6645L19.3249 18.6648Z" fill="white"/>
<path fill-rule="evenodd" clip-rule="evenodd" d="M4.47357 14.4317C4.45421 14.5388 4.42766 14.7206 4.3624 14.7952C4.36552 14.8942 4.29526 15.1496 4.26216 15.2177C4.24749 15.3235 4.21439 15.4218 4.18628 15.5279L4.12695 15.7383C4.10915 15.7787 4.11696 15.7639 4.09666 15.7884C4.10947 15.9122 4.01672 16.2127 4.00423 16.3797C3.98643 16.6175 4.0314 16.8553 4.01766 17.0597C4.04202 17.0881 4.16786 17.5716 4.21439 17.6756C4.30401 17.9449 4.50386 18.217 4.67029 18.4252C4.71401 18.4804 4.71026 18.4725 4.76866 18.5254C4.8233 18.5745 4.83392 18.5667 4.8386 18.6256C4.88263 18.6533 4.89137 18.6552 4.92635 18.6857L4.97694 18.7434C4.98006 18.7396 4.98568 18.7544 4.9888 18.7601C5.07436 18.7758 5.04813 18.7916 5.1874 18.8908C5.52621 19.1296 5.78726 19.1796 5.90623 19.2612L6.45738 19.4235C6.55668 19.4146 7.25209 19.6131 7.38543 19.6512L7.62618 19.7132C7.63212 19.6915 7.63774 19.7073 7.6165 19.6572C7.55593 19.6405 7.41572 19.5343 7.39136 19.4726L7.28051 19.3938C7.19089 19.3173 7.10595 19.2603 7.04662 19.1532C6.99791 19.1346 7.01352 19.1485 6.96294 19.0993C6.90735 19.0461 6.92671 19.0707 6.90735 19.0187C6.83834 18.9834 6.85864 18.997 6.80306 18.938C6.77089 18.9047 6.75434 18.8829 6.72124 18.8476C6.6463 18.7683 6.6132 18.7683 6.57042 18.6649C6.52452 18.6473 6.42428 18.543 6.41366 18.4823L6.27252 18.3399C6.22068 18.275 6.18758 18.2473 6.16042 18.1679C6.08235 18.1326 5.88656 17.8141 5.81755 17.713C5.75416 17.6195 5.54869 17.3231 5.53308 17.2207C5.47968 17.1775 5.49217 17.1905 5.45126 17.1186C5.42597 17.0723 5.41723 17.0509 5.39474 17.0018L5.24579 16.7051L5.02659 16.208C4.9557 16.0773 4.72182 15.4375 4.72587 15.2854C4.65655 15.2098 4.58848 14.8305 4.5738 14.7026L4.5076 14.3813L4.47357 14.4317Z" fill="white"/>
</svg>
