<svg width="26" height="26" viewBox="0 0 26 26" fill="none" xmlns="http://www.w3.org/2000/svg">
<path d="M20.9976 0H4.99756C2.23614 0 -0.00244141 2.23858 -0.00244141 5V21C-0.00244141 23.7614 2.23614 26 4.99756 26H20.9976C23.759 26 25.9976 23.7614 25.9976 21V5C25.9976 2.23858 23.759 0 20.9976 0Z" fill="#3B5998"/>
<path fill-rule="evenodd" clip-rule="evenodd" d="M12.3016 25.8773H16.1643V16.4205H19.3684L19.8612 12.6827H16.1643V10.3014C16.1643 9.69864 16.2934 9.24591 16.553 8.94636C16.8143 8.64409 17.2998 8.49227 18.0121 8.49227H19.9843V5.16591C19.5462 5.05682 18.588 5 17.108 5C15.6293 5 14.4598 5.43273 13.5957 6.29545C12.733 7.15682 12.3016 8.37045 12.3016 9.93V12.6827H9.05615V16.4205H12.3016V25.8773Z" fill="white"/>
</svg>
