<svg width="26" height="26" viewBox="0 0 26 26" fill="none" xmlns="http://www.w3.org/2000/svg">
<rect width="26" height="26" rx="5" fill="#0077B5"/>
<path d="M8.56865 10.0002H5V21H8.56865V10.0002Z" fill="white"/>
<path d="M18.2883 10.129C18.2502 10.1172 18.2148 10.1036 18.175 10.0927C18.1269 10.0818 18.0788 10.0728 18.0299 10.0646C17.8404 10.0265 17.6328 10.0002 17.3898 10.0002C15.3099 10.0002 13.9898 11.5171 13.5555 12.1028V10.0002H9.98682V21H13.5555V14.9996C13.5555 14.9996 16.2519 11.2342 17.3898 13.9996V21H20.9575V13.5771C20.9575 11.9151 19.8215 10.5297 18.2883 10.129Z" fill="white"/>
<path d="M8.49068 6.74987C8.49068 7.71638 7.70913 8.49974 6.74534 8.49974C5.78155 8.49974 5 7.71638 5 6.74987C5 5.78336 5.78155 5 6.74534 5C7.70913 5 8.49068 5.78336 8.49068 6.74987Z" fill="white"/>
</svg>
