<svg width="26" height="26" viewBox="0 0 26 26" fill="none" xmlns="http://www.w3.org/2000/svg">
<g clip-path="url(#clip0_249_897)">
<path d="M25.9878 0H-0.012207V26H25.9878V0Z" fill="#E60023"/>
<path fill-rule="evenodd" clip-rule="evenodd" d="M9.44004 15.5218C8.91464 15.5095 8.33921 14.8816 8.12247 14.4994C7.8485 14.0148 7.68538 13.3501 7.66871 12.6772C7.56732 8.59999 12.5682 6.64171 15.9324 8.42846C20.3519 10.7762 17.8168 18.2085 13.5077 17.3645C12.6019 17.1875 12.3447 16.6865 12.0707 16.5218C11.9094 16.8217 11.6246 18.0388 11.5052 18.4587C11.3101 19.1462 10.8887 19.6827 10.7274 20.1941C13.1458 20.7141 15.087 20.4853 16.9755 19.3746C22.2855 16.2516 22.2476 8.29151 15.5223 5.96241C9.33145 3.81849 2.88913 10.238 6.00777 16.5642C6.39349 17.3463 7.10094 18.2681 7.60067 18.7117C7.94268 19.0152 9.26701 20.0608 9.91588 20.1472C9.93075 18.3564 10.3606 17.0742 10.7306 15.4289C11.2033 13.3255 10.772 14.508 10.7053 13.1554C10.5895 10.8167 12.921 10.3945 13.2116 11.8655C13.3351 12.4883 12.9295 13.5471 12.7516 14.1168C12.4803 14.984 12.3852 15.7124 13.1404 16.1119C13.8884 16.5077 14.7851 16.081 15.1533 15.686C15.9256 14.8579 16.547 12.9124 16.1933 11.3977C15.8567 9.95723 14.6166 9.16145 12.8633 9.20831C11.2028 9.25245 10.0164 10.2393 9.52566 11.3891C8.39914 14.0262 10.7008 14.3456 9.44004 15.5218Z" fill="#FFFEFE"/>
</g>
<rect width="26" height="26" fill="#263238"/>
<path d="M13.6984 5C9.32577 5 7 7.80995 7 10.8746C7 12.2954 7.79111 14.067 9.05895 14.6296C9.25206 14.7163 9.35655 14.679 9.39947 14.4999C9.43678 14.3646 9.60378 13.7097 9.68494 13.4C9.70919 13.3011 9.69613 13.2153 9.61684 13.122C9.19609 12.6341 8.8621 11.745 8.8621 10.911C8.8621 8.77459 10.5563 6.69884 13.439 6.69884C15.9327 6.69884 17.6772 8.32306 17.6772 10.646C17.6772 13.2713 16.2919 15.0876 14.4913 15.0876C13.495 15.0876 12.7533 14.3031 12.9884 13.3338C13.2729 12.1779 13.8299 10.9362 13.8299 10.1031C13.8299 9.3558 13.4091 8.7382 12.5499 8.7382C11.5358 8.7382 10.713 9.74482 10.713 11.0976C10.713 11.9568 11.0162 12.5361 11.0162 12.5361C11.0162 12.5361 10.0124 16.6008 9.82581 17.3593C9.51048 18.6449 9.86872 20.7253 9.89951 20.9044C9.9191 21.0033 10.0292 21.035 10.0917 20.9538C10.1896 20.8242 11.4024 19.088 11.743 17.8342C11.867 17.377 12.3745 15.5243 12.3745 15.5243C12.7085 16.1297 13.6732 16.6363 14.7003 16.6363C17.7556 16.6363 19.9638 13.9439 19.9638 10.6012C19.9526 7.3976 17.2183 5 13.6984 5Z" fill="white"/>
<defs>
<clipPath id="clip0_249_897">
<rect width="26" height="26" fill="white"/>
</clipPath>
</defs>
</svg>
