<svg width="26" height="26" viewBox="0 0 26 26" fill="none" xmlns="http://www.w3.org/2000/svg">
<path d="M0 13.6228C0 20.733 5.88977 26.497 13 26.497C20.1102 26.497 26 20.733 26 13.6228C26 6.51252 20.1102 0.748535 13 0.748535C5.88977 0.748535 0 6.51252 0 13.6228Z" fill="#26A2E0"/>
<path d="M21.331 6.93782L18.6973 20.2203C18.6973 20.2203 18.3291 21.1422 17.3144 20.6995L11.2346 16.0378L9.02246 14.9711L5.29954 13.7203C5.29954 13.7203 4.72895 13.5193 4.67133 13.0752C4.61371 12.6311 5.31641 12.395 5.31641 12.395L20.1153 6.59209C20.1153 6.58646 21.331 6.051 21.331 6.93782Z" fill="white"/>
<path d="M10.7619 20.0714C10.7619 20.0714 10.5834 20.0532 10.3641 19.3561C10.1449 18.659 9.02197 14.9712 9.02197 14.9712L17.9589 9.29478C17.9589 9.29478 18.4775 8.98419 18.4551 9.29478C18.4551 9.29478 18.5478 9.3524 18.2709 9.60678C17.9941 9.86538 11.2524 15.9283 11.2524 15.9283L10.7619 20.0714Z" fill="#B3B3B3"/>
<path d="M13.5639 17.8241L11.1607 20.0193C11.1607 20.0193 10.9709 20.1627 10.7686 20.0713L11.2295 15.9971L13.5639 17.8241Z" fill="#666666"/>
</svg>
