<svg width="26" height="26" viewBox="0 0 26 26" fill="none" xmlns="http://www.w3.org/2000/svg">
<path d="M26 0H0V25.7484H26V0Z" fill="#263238"/>
<path d="M21.331 6.18928L18.6973 19.4718C18.6973 19.4718 18.3291 20.3937 17.3144 19.951L11.2346 15.2893L9.02246 14.2226L5.29954 12.9718C5.29954 12.9718 4.72895 12.7708 4.67133 12.3267C4.61371 11.8826 5.31641 11.6465 5.31641 11.6465L20.1153 5.84355C20.1153 5.83793 21.331 5.30247 21.331 6.18928Z" fill="white"/>
<path d="M10.7619 19.3229C10.7619 19.3229 10.5834 19.3046 10.3641 18.6075C10.1449 17.9105 9.02197 14.2227 9.02197 14.2227L17.9589 8.54625C17.9589 8.54625 18.4775 8.23565 18.4551 8.54625C18.4551 8.54625 18.5478 8.60387 18.2709 8.85825C17.9941 9.11684 11.2524 15.1798 11.2524 15.1798L10.7619 19.3229Z" fill="#B3B3B3"/>
<path d="M13.5639 17.0756L11.1607 19.2708C11.1607 19.2708 10.9709 19.4142 10.7686 19.3228L11.2295 15.2485L13.5639 17.0756Z" fill="#666666"/>
</svg>
