<svg width="26" height="25" viewBox="0 0 26 25" fill="none" xmlns="http://www.w3.org/2000/svg">
<rect y="-1" width="26" height="26" fill="#263238"/>
<path d="M11.6 14.1429L15.233 12L11.6 9.85714V14.1429ZM19.692 8.55C19.783 8.88571 19.846 9.33571 19.888 9.90714C19.937 10.4786 19.958 10.9714 19.958 11.4L20 12C20 13.5643 19.888 14.7143 19.692 15.45C19.517 16.0929 19.111 16.5071 18.481 16.6857C18.152 16.7786 17.55 16.8429 16.626 16.8857C15.716 16.9357 14.883 16.9571 14.113 16.9571L13 17C10.067 17 8.24 16.8857 7.519 16.6857C6.889 16.5071 6.483 16.0929 6.308 15.45C6.217 15.1143 6.154 14.6643 6.112 14.0929C6.063 13.5214 6.042 13.0286 6.042 12.6L6 12C6 10.4357 6.112 9.28571 6.308 8.55C6.483 7.90714 6.889 7.49286 7.519 7.31429C7.848 7.22143 8.45 7.15714 9.374 7.11429C10.284 7.06429 11.117 7.04286 11.887 7.04286L13 7C15.933 7 17.76 7.11429 18.481 7.31429C19.111 7.49286 19.517 7.90714 19.692 8.55Z" fill="white"/>
</svg>
